<svg xmlns="http://www.w3.org/2000/svg" viewBox="0 0 50 50"><defs/><path d="M42.431 16.882a2.625 2.625 0 0 0-3.649-.329c-2.29 1.882-2.295 3.42-5.921 5.5-4.444 2.555-5.441.821-9.885 3.375s-3.445 4.287-7.887 6.84c-3.631 2.087-4.96 1.31-7.75 2.35a2.612 2.612 0 0 0-1.588 3.212 28.683 28.683 0 0 0 4.408 7.776 2.634 2.634 0 0 0 2.976.562c3.278-1.458 4.517-.379 8.432-2.629 4.442-2.553 3.445-4.287 7.887-6.84s5.441-.82 9.885-3.375c3.889-2.235 3.612-3.842 6.46-5.92a2.552 2.552 0 0 0 1-2.775 31.588 31.588 0 0 0-4.368-7.747z" fill="#ff6242"/><path d="M45.307 22.031a2.552 2.552 0 0 1-1 2.775c-2.847 2.078-2.571 3.685-6.46 5.92-4.444 2.555-5.441.821-9.885 3.375s-3.445 4.287-7.887 6.84c-3.915 2.25-5.154 1.171-8.432 2.63a2.636 2.636 0 0 1-2.976-.563A14.382 14.382 0 0 1 7.11 40.9a24.433 24.433 0 0 0 3.049 4.714 2.636 2.636 0 0 0 2.976.563c3.278-1.459 4.517-.38 8.432-2.63 4.442-2.553 3.445-4.287 7.887-6.84s5.441-.82 9.885-3.375c3.889-2.235 3.612-3.842 6.46-5.92a2.552 2.552 0 0 0 1-2.775A29.616 29.616 0 0 0 44 19.1a19.176 19.176 0 0 1 1.307 2.931z" fill="#e04122"/><path d="M45.867 22.631c-.264-.6-.6-1.289-.981-2a2.1 2.1 0 0 1-.645.753 15.116 15.116 0 0 0-2.958 2.816 13.3 13.3 0 0 1-4.083 3.435 13.292 13.292 0 0 1-5.019 1.8 15.185 15.185 0 0 0-5.662 2.033 15.178 15.178 0 0 0-4.6 3.867 13.257 13.257 0 0 1-4.077 3.429 13.28 13.28 0 0 1-5.017 1.8 15.042 15.042 0 0 0-4 1.174 2.034 2.034 0 0 1-1.167.16c.423.708.849 1.366 1.243 1.909a4.194 4.194 0 0 0 .752-.249 13.156 13.156 0 0 1 3.525-1.025 15.176 15.176 0 0 0 5.659-2.033 15.159 15.159 0 0 0 4.6-3.866 13.277 13.277 0 0 1 4.078-3.43 13.322 13.322 0 0 1 5.019-1.8 15.149 15.149 0 0 0 5.666-2.035 15.184 15.184 0 0 0 4.606-3.869 13.2 13.2 0 0 1 2.6-2.486 4.09 4.09 0 0 0 .461-.383zm-2.175-4.008c-.2-.307-.392-.593-.578-.855a2.73 2.73 0 0 1-.575.559 14.614 14.614 0 0 0-2.868 2.733 13.752 13.752 0 0 1-4.213 3.54 13.741 13.741 0 0 1-5.18 1.857 14.76 14.76 0 0 0-5.5 1.975 14.736 14.736 0 0 0-4.472 3.757 13.712 13.712 0 0 1-4.206 3.54 13.706 13.706 0 0 1-5.178 1.856 14.664 14.664 0 0 0-3.881 1.136 2.584 2.584 0 0 1-.868.211c.129.3.275.623.436.958a3.584 3.584 0 0 0 .846-.258 13.575 13.575 0 0 1 3.643-1.062 14.763 14.763 0 0 0 5.5-1.974 14.736 14.736 0 0 0 4.472-3.757 13.712 13.712 0 0 1 4.205-3.539 13.747 13.747 0 0 1 5.18-1.858 14.736 14.736 0 0 0 5.5-1.974 14.75 14.75 0 0 0 4.476-3.76 13.636 13.636 0 0 1 2.689-2.569 3.718 3.718 0 0 0 .572-.516z" fill="#ffe8d1"/><path d="M42.431 16.882a2.625 2.625 0 0 0-3.649-.329c-2.29 1.882-2.295 3.42-5.921 5.5-4.444 2.555-5.441.821-9.885 3.375s-3.445 4.287-7.887 6.84c-3.631 2.087-4.96 1.31-7.75 2.35a2.612 2.612 0 0 0-1.588 3.212 28.683 28.683 0 0 0 4.408 7.776 2.634 2.634 0 0 0 2.976.562c3.278-1.458 4.517-.379 8.432-2.629 4.442-2.553 3.445-4.287 7.887-6.84s5.441-.82 9.885-3.375c3.889-2.235 3.612-3.842 6.46-5.92a2.552 2.552 0 0 0 1-2.775 31.588 31.588 0 0 0-4.368-7.747z" fill="none" stroke="#45413c" stroke-linecap="round" stroke-linejoin="round" stroke-width="1.25px"/><path d="M33.839 4.362a2.194 2.194 0 0 0-3.049-.275c-1.913 1.573-1.918 2.858-4.946 4.6-3.714 2.134-4.546.686-8.259 2.82S14.707 15.086 11 17.219c-3.034 1.743-4.144 1.094-6.475 1.963A2.182 2.182 0 0 0 3.2 21.866a23.944 23.944 0 0 0 3.682 6.5 2.2 2.2 0 0 0 2.486.47c2.739-1.219 3.774-.317 7.045-2.2 3.706-2.136 2.873-3.582 6.587-5.715s4.545-.685 8.258-2.82c3.25-1.867 3.018-3.209 5.4-4.946a2.132 2.132 0 0 0 .838-2.318 26.411 26.411 0 0 0-3.657-6.475z" fill="#ff866e"/><path d="M36.241 8.664a2.131 2.131 0 0 1-.838 2.318c-2.379 1.737-2.147 3.079-5.4 4.946-3.714 2.135-4.546.686-8.259 2.82s-2.878 3.581-6.589 5.714c-3.271 1.88-4.306.978-7.045 2.2a2.2 2.2 0 0 1-2.486-.47 12.139 12.139 0 0 1-1.3-1.765 20.523 20.523 0 0 0 2.548 3.938 2.2 2.2 0 0 0 2.486.47c2.739-1.219 3.774-.317 7.045-2.2 3.716-2.135 2.883-3.581 6.597-5.714s4.545-.685 8.259-2.82c3.249-1.867 3.017-3.209 5.4-4.946a2.132 2.132 0 0 0 .838-2.318 24.742 24.742 0 0 0-2.345-4.624 15.942 15.942 0 0 1 1.089 2.451z" fill="#ff6242"/><path d="M34.892 5.817c-.166-.257-.328-.5-.483-.714a2.264 2.264 0 0 1-.48.466 12.251 12.251 0 0 0-2.4 2.284 11.464 11.464 0 0 1-3.519 2.958 11.486 11.486 0 0 1-4.328 1.552 12.342 12.342 0 0 0-4.6 1.649 12.314 12.314 0 0 0-3.736 3.14 11.47 11.47 0 0 1-3.516 2.956 11.474 11.474 0 0 1-4.326 1.551 12.234 12.234 0 0 0-3.243.949 2.139 2.139 0 0 1-.725.176c.109.252.231.521.365.8a3.024 3.024 0 0 0 .706-.216 11.35 11.35 0 0 1 3.045-.888 12.3 12.3 0 0 0 4.594-1.649 12.3 12.3 0 0 0 3.736-3.139 11.463 11.463 0 0 1 3.517-2.956 11.465 11.465 0 0 1 4.327-1.552 12.329 12.329 0 0 0 4.6-1.65 12.309 12.309 0 0 0 3.739-3.141 11.43 11.43 0 0 1 2.247-2.146 3.127 3.127 0 0 0 .48-.43z" fill="#ffe8d1"/><path d="M35.892 7.817c-.166-.257-.328-.5-.483-.714a2.264 2.264 0 0 1-.48.466 12.251 12.251 0 0 0-2.4 2.284 11.464 11.464 0 0 1-3.519 2.958 11.486 11.486 0 0 1-4.328 1.552 12.342 12.342 0 0 0-4.6 1.649 12.314 12.314 0 0 0-3.736 3.14 11.47 11.47 0 0 1-3.516 2.956 11.474 11.474 0 0 1-4.326 1.551 12.234 12.234 0 0 0-3.243.949 2.139 2.139 0 0 1-.725.176c.109.252.231.521.365.8a3.024 3.024 0 0 0 .706-.216 11.35 11.35 0 0 1 3.045-.888 12.3 12.3 0 0 0 4.594-1.649 12.3 12.3 0 0 0 3.736-3.139 11.463 11.463 0 0 1 3.517-2.956 11.465 11.465 0 0 1 4.327-1.552 12.329 12.329 0 0 0 4.6-1.65 12.309 12.309 0 0 0 3.739-3.141 11.43 11.43 0 0 1 2.247-2.146 3.127 3.127 0 0 0 .48-.43z" fill="#ffe8d1"/><path d="M33.839 4.362a2.194 2.194 0 0 0-3.049-.275c-1.913 1.573-1.918 2.858-4.946 4.6-3.714 2.134-4.546.686-8.259 2.82S14.707 15.086 11 17.219c-3.034 1.743-4.144 1.094-6.475 1.963A2.182 2.182 0 0 0 3.2 21.866a23.944 23.944 0 0 0 3.682 6.5 2.2 2.2 0 0 0 2.486.47c2.739-1.219 3.774-.317 7.045-2.2 3.706-2.136 2.873-3.582 6.587-5.715s4.545-.685 8.258-2.82c3.25-1.867 3.018-3.209 5.4-4.946a2.132 2.132 0 0 0 .838-2.318 26.411 26.411 0 0 0-3.657-6.475z" fill="none" stroke="#45413c" stroke-linecap="round" stroke-linejoin="round" stroke-width="1.25px"/></svg>