<svg xmlns="http://www.w3.org/2000/svg" viewBox="0 0 50 50"><defs/><path d="M49.066 21.4a12.035 12.035 0 0 0-12-12h-23a12.035 12.035 0 0 0-12 12v13a12.035 12.035 0 0 0 12 12h23a12.035 12.035 0 0 0 12-12v-13z" fill="#656769"/><path d="M37.066 42.4h-23a12.035 12.035 0 0 1-12-12v4a12.035 12.035 0 0 0 12 12h23a12.035 12.035 0 0 0 12-12v-4a12.035 12.035 0 0 1-12 12z" fill="#525252"/><path d="M49.066 21.4a12.035 12.035 0 0 0-12-12h-23a12.035 12.035 0 0 0-12 12v13a12.035 12.035 0 0 0 12 12h23a12.035 12.035 0 0 0 12-12v-13z" fill="none" stroke="#45413c" stroke-linecap="round" stroke-linejoin="round" stroke-width="1.25px"/><rect x="2.066" y="9.403" width="47" height="27" rx="12" ry="12" fill="#ff6242" stroke="#45413c" stroke-linecap="round" stroke-linejoin="round" stroke-width="1.25px"/><rect x="4.209" y="11.403" width="42.714" height="23" rx="10.5" ry="10.5" fill="#e04122" stroke="#45413c" stroke-linecap="round" stroke-linejoin="round" stroke-width="1.25px"/><path d="M22.523 11.4a2.929 2.929 0 0 0-5.584 0h-.385a2.48 2.48 0 0 0-3.992.016A2.492 2.492 0 0 0 8.19 13.68a10.579 10.579 0 0 0-1.719 1.72A2.5 2.5 0 0 0 4.3 18.967a2.454 2.454 0 0 0 .23.384 10.472 10.472 0 0 0-.321 2.549v2a10.5 10.5 0 0 0 10.5 10.5h8.357v-23z" fill="#fff"/><path d="M4.209 21.9v2a10.5 10.5 0 0 0 10.5 10.5h8.357v-2h-8.357a10.5 10.5 0 0 1-10.5-10.5z" fill="#f0f0f0"/><path d="M22.523 11.4a2.929 2.929 0 0 0-5.584 0h-.385a2.48 2.48 0 0 0-3.992.016A2.492 2.492 0 0 0 8.19 13.68a10.579 10.579 0 0 0-1.719 1.72A2.5 2.5 0 0 0 4.3 18.967a2.454 2.454 0 0 0 .23.384 10.472 10.472 0 0 0-.321 2.549v2a10.5 10.5 0 0 0 10.5 10.5h8.357v-23z" fill="none" stroke="#45413c" stroke-linecap="round" stroke-linejoin="round" stroke-width="1.25px"/><path d="M31.209 8.973a3.009 3.009 0 0 1 3.621-1.724 3.013 3.013 0 0 1 3.914-4.014 2.964 2.964 0 0 1 .6.342c1.544-1.159 3.1-1.6 4.379-1.07s2.057 1.952 2.32 3.864a3.01 3.01 0 0 1 .566 5.791 3 3 0 0 1-1.332 5.632 3.009 3.009 0 0 1-3.226 1.688c-2.251 2.994-4.951 4.568-6.965 3.729s-2.792-3.864-2.25-7.573a3.009 3.009 0 0 1-1.071-3.48 3.013 3.013 0 0 1-.556-3.185z" fill="#6dd627"/><path d="M48.332 10.506a3 3 0 0 0-2.289-4.135C45.78 4.459 45 3.04 43.723 2.507s-2.835-.089-4.379 1.07a2.964 2.964 0 0 0-.6-.342A3.019 3.019 0 0 0 34.8 4.859a2.958 2.958 0 0 0-.217 1.326 3 3 0 0 1 2.166.05 2.964 2.964 0 0 1 .6.342c1.544-1.159 3.1-1.6 4.379-1.07s2.057 1.952 2.32 3.864a3.01 3.01 0 0 1 .566 5.791 3.016 3.016 0 0 1 1.537 2.462 3 3 0 0 0 .463-5.462 3 3 0 0 0 1.718-1.656z" fill="#9ceb60"/><path d="M31.209 8.973a3.009 3.009 0 0 1 3.621-1.724 3.013 3.013 0 0 1 3.914-4.014 2.964 2.964 0 0 1 .6.342c1.544-1.159 3.1-1.6 4.379-1.07s2.057 1.952 2.32 3.864a3.01 3.01 0 0 1 .566 5.791 3 3 0 0 1-1.332 5.632 3.009 3.009 0 0 1-3.226 1.688c-2.251 2.994-4.951 4.568-6.965 3.729s-2.792-3.864-2.25-7.573a3.009 3.009 0 0 1-1.071-3.48 3.013 3.013 0 0 1-.556-3.185z" fill="none" stroke="#45413c" stroke-linecap="round" stroke-linejoin="round" stroke-width="1.25px"/><path d="M22.493 15.109a2.689 2.689 0 0 1 .948-3.456 2.684 2.684 0 0 1 .151-5.195c.117-1.721.726-3.033 1.832-3.586s2.522-.253 3.968.687a2.642 2.642 0 0 1 .514-.342 2.692 2.692 0 0 1 3.733 3.339 2.683 2.683 0 0 1 3.031 4.188 2.688 2.688 0 0 1-.742 3.167c.709 3.273.2 6.016-1.543 6.887s-4.243-.368-6.435-2.9a2.69 2.69 0 0 1-2.979-1.307 2.692 2.692 0 0 1-2.478-1.482z" fill="#6dd627"/><path d="M22.651 11.254a2.641 2.641 0 0 1 1.941-1.8c.117-1.721.726-3.033 1.832-3.586s2.522-.253 3.968.687a2.642 2.642 0 0 1 .514-.342 2.687 2.687 0 0 1 2.763.225 2.683 2.683 0 0 0-3.763-3.225 2.642 2.642 0 0 0-.514.342c-1.446-.94-2.861-1.241-3.968-.687s-1.715 1.865-1.832 3.586a2.675 2.675 0 0 0-1.792 3.829 2.638 2.638 0 0 0 .851.971z" fill="#9ceb60"/><path d="M22.493 15.109a2.689 2.689 0 0 1 .948-3.456 2.684 2.684 0 0 1 .151-5.195c.117-1.721.726-3.033 1.832-3.586s2.522-.253 3.968.687a2.642 2.642 0 0 1 .514-.342 2.692 2.692 0 0 1 3.733 3.339 2.683 2.683 0 0 1 3.031 4.188 2.688 2.688 0 0 1-.742 3.167c.709 3.273.2 6.016-1.543 6.887s-4.243-.368-6.435-2.9a2.69 2.69 0 0 1-2.979-1.307 2.692 2.692 0 0 1-2.478-1.482z" fill="none" stroke="#45413c" stroke-linecap="round" stroke-linejoin="round" stroke-width="1.25px"/><rect x="32.902" y="11.814" width="14.951" height="6.9" rx="3" ry="3" transform="rotate(40.148 40.377 15.264)" fill="#ffe500"/><path d="m46.022 15.513-6.841-5.771a3.009 3.009 0 0 0-4.228.358l-.58.689a2.971 2.971 0 0 0-.687 1.628l.267-.317a3.009 3.009 0 0 1 4.228-.358l6.841 5.771a3 3 0 0 1 1.046 2.6l.313-.371a3.007 3.007 0 0 0-.359-4.229z" fill="#fff48c"/><rect x="32.902" y="11.814" width="14.951" height="6.9" rx="3" ry="3" transform="rotate(40.148 40.377 15.264)" fill="none" stroke="#45413c" stroke-linecap="round" stroke-linejoin="round" stroke-width="1.25px"/><rect x="21.902" y="11.814" width="14.951" height="6.9" rx="3" ry="3" transform="rotate(19.271 29.376 15.265)" fill="#ffe500"/><path d="m34.74 13.484-8.449-2.954a3.01 3.01 0 0 0-3.822 1.842l-.3.85c-.006.018-.007.037-.013.055a3 3 0 0 1 3.132-.747l8.449 2.954a3.006 3.006 0 0 1 1.863 3.768 2.953 2.953 0 0 0 .69-1.1l.3-.849a3.009 3.009 0 0 0-1.85-3.819z" fill="#fff48c"/><rect x="21.902" y="11.814" width="14.951" height="6.9" rx="3" ry="3" transform="rotate(19.271 29.376 15.265)" fill="none" stroke="#45413c" stroke-linecap="round" stroke-linejoin="round" stroke-width="1.25px"/><path d="m11.066 29.403 2-1m-3-6 2 2m3-6 1-1m-5-2v1m7 10 1-1m0 5 1 1m-1-13 1 2" fill="none" stroke="#45413c" stroke-linecap="round" stroke-linejoin="round" stroke-width="1.25px"/><path d="M46.923 23.9v-2c0-.214-.019-.423-.032-.634a1.944 1.944 0 0 0-1.418-.99 16.156 16.156 0 0 0-12.514 5.089 1.736 1.736 0 0 0-.219 3l7.707 5.235a10.5 10.5 0 0 0 6.476-9.7z" fill="#ffbe3d"/><path d="M46.891 21.269a1.944 1.944 0 0 0-1.418-.99 16.156 16.156 0 0 0-12.514 5.089 1.729 1.729 0 0 0-.29 2.934 16.156 16.156 0 0 1 12.447-5.023 1.946 1.946 0 0 1 1.418.99c.012.211.032.42.032.634v1.7a10.512 10.512 0 0 0 .357-2.7v-2c0-.214-.023-.423-.032-.634z" fill="#ffbe3d"/><path d="M46.923 23.9v-2c0-.214-.019-.423-.032-.634a1.944 1.944 0 0 0-1.418-.99 16.156 16.156 0 0 0-12.514 5.089 1.736 1.736 0 0 0-.219 3l7.707 5.235a10.5 10.5 0 0 0 6.476-9.7z" fill="none" stroke="#45413c" stroke-linecap="round" stroke-linejoin="round" stroke-width="1.25px"/><path d="M28.142 21.088A1.685 1.685 0 0 0 27.928 24l9.619 6.534a1.685 1.685 0 0 0 2.627-1.271c3.081-10.629 2.023-12.749.115-13.114a15.68 15.68 0 0 0-12.147 4.939z" fill="#ffbe3d"/><path d="M40.289 16.147a15.68 15.68 0 0 0-12.147 4.941 1.685 1.685 0 0 0-.572 2.581 15.684 15.684 0 0 1 11.719-4.522c1.782.341 2.819 2.217.441 11.118a1.644 1.644 0 0 0 .444-1c3.081-10.633 2.026-12.753.115-13.118z" fill="#ffda8f"/><path d="M28.142 21.088A1.685 1.685 0 0 0 27.928 24l9.619 6.534a1.685 1.685 0 0 0 2.627-1.271c3.081-10.629 2.023-12.749.115-13.114a15.68 15.68 0 0 0-12.147 4.939z" fill="none" stroke="#45413c" stroke-linecap="round" stroke-linejoin="round" stroke-width="1.25px"/><path d="M32.473 15.279a15.771 15.771 0 0 0-9.407 2.531v7.815l6.582 4.475a1.735 1.735 0 0 0 2.706-1.309c3.174-10.953 2.084-13.137.119-13.512z" fill="#ffbe3d"/><path d="M31.973 18.279c1.291.247 2.2 1.292 1.77 5.072 1.323-6.285.313-7.77-1.27-8.072a15.771 15.771 0 0 0-9.407 2.531v2.7a15.666 15.666 0 0 1 8.907-2.231z" fill="#ffda8f"/><path d="M32.473 15.279a15.771 15.771 0 0 0-9.407 2.531v7.815l6.582 4.475a1.735 1.735 0 0 0 2.706-1.309c3.174-10.953 2.084-13.137.119-13.512z" fill="none" stroke="#45413c" stroke-linecap="round" stroke-linejoin="round" stroke-width="1.25px"/><path d="M28.992 20.755a3.3 3.3 0 0 1 .645-2.043 1.441 1.441 0 0 1 1.943-.281A1.388 1.388 0 0 1 32 19.48a2.984 2.984 0 0 1-.277 1.123c-.292.692-1.087 2.392-1.934 2.54-1.067.186-.828-1.743-.797-2.388z" fill="#ff6242" stroke="#45413c" stroke-linecap="round" stroke-linejoin="round" stroke-width="1.25px"/><path d="M31.931 23.646a3.3 3.3 0 0 0 2.077-.522 1.439 1.439 0 0 0 .4-1.922 1.385 1.385 0 0 0-1.022-.482 2.992 2.992 0 0 0-1.137.21c-.708.25-2.453.942-2.651 1.778-.253 1.053 1.684.93 2.333.938z" fill="#ff6242" stroke="#45413c" stroke-linecap="round" stroke-linejoin="round" stroke-width="1.25px"/><path d="M33.332 29.517c-.448-.3-.969-.484-1.428-.772a3.584 3.584 0 0 1-1.564-2.177c-.278-1.16.422-1.557.851-2.508a1.475 1.475 0 0 0-.43-1.722c-1.065-.82-3.14-.263-4.23.227a7.11 7.11 0 0 0-3.155 3.011 5.993 5.993 0 0 0-.576 5.294 7.592 7.592 0 0 0 2.544 2.806c.337.253.684.495 1.038.727h7.507a3.571 3.571 0 0 0 .821-2.006 3.291 3.291 0 0 0-1.378-2.88z" fill="#ffcabf"/><path d="M34.132 30.366a3.026 3.026 0 0 0-.8-.849 4.406 4.406 0 0 0-.441-.244M24.8 32.37a5.993 5.993 0 0 1 .573-5.294 7.11 7.11 0 0 1 3.155-3.011 7.223 7.223 0 0 1 2.759-.641 1.455 1.455 0 0 0-.529-1.086c-1.065-.82-3.14-.263-4.23.227a7.11 7.11 0 0 0-3.155 3.011 5.993 5.993 0 0 0-.573 5.294 7.592 7.592 0 0 0 2.544 2.806c.337.253.684.495 1.038.727h.018a6.1 6.1 0 0 1-1.6-2.033z" fill="#fff0ed"/><path d="M33.332 29.517c-.448-.3-.969-.484-1.428-.772a3.584 3.584 0 0 1-1.564-2.177c-.278-1.16.422-1.557.851-2.508a1.475 1.475 0 0 0-.43-1.722c-1.065-.82-3.14-.263-4.23.227a7.11 7.11 0 0 0-3.155 3.011 5.993 5.993 0 0 0-.576 5.294 7.592 7.592 0 0 0 2.544 2.806c.337.253.684.495 1.038.727h7.507a3.571 3.571 0 0 0 .821-2.006 3.291 3.291 0 0 0-1.378-2.88z" fill="none" stroke="#45413c" stroke-linecap="round" stroke-linejoin="round" stroke-width="1.25px"/><path d="M35.992 23.755a3.3 3.3 0 0 1 .645-2.043 1.441 1.441 0 0 1 1.943-.281A1.388 1.388 0 0 1 39 22.48a2.984 2.984 0 0 1-.277 1.123c-.292.692-1.087 2.392-1.934 2.54-1.067.186-.828-1.743-.797-2.388z" fill="#ff6242" stroke="#45413c" stroke-linecap="round" stroke-linejoin="round" stroke-width="1.25px"/><path d="M38.931 26.646a3.3 3.3 0 0 0 2.077-.522 1.439 1.439 0 0 0 .4-1.922 1.385 1.385 0 0 0-1.022-.482 2.992 2.992 0 0 0-1.137.21c-.708.25-2.453.942-2.651 1.778-.253 1.053 1.684.93 2.333.938z" fill="#ff6242" stroke="#45413c" stroke-linecap="round" stroke-linejoin="round" stroke-width="1.25px"/><path d="M41.089 33.3a3.012 3.012 0 0 0-.757-.782c-.448-.3-.969-.484-1.428-.772a3.584 3.584 0 0 1-1.564-2.177c-.278-1.16.422-1.557.851-2.508a1.475 1.475 0 0 0-.43-1.722c-1.065-.82-3.14-.263-4.23.227a7.11 7.11 0 0 0-3.155 3.011 5.993 5.993 0 0 0-.576 5.293 4.683 4.683 0 0 0 .306.533h6.314a10.443 10.443 0 0 0 4.669-1.103z" fill="#ffcabf"/><path d="M31.376 31.076a7.11 7.11 0 0 1 3.155-3.011 6.278 6.278 0 0 1 3.425-.567 3.9 3.9 0 0 0 .235-.438 1.475 1.475 0 0 0-.43-1.722c-1.065-.82-3.14-.263-4.23.227a7.11 7.11 0 0 0-3.155 3.011 5.993 5.993 0 0 0-.576 5.294 4.683 4.683 0 0 0 .306.533h.306a6.975 6.975 0 0 1 .964-3.327zm6.934.189a1.839 1.839 0 0 0 .03.8 3.572 3.572 0 0 0 1.148 1.854 10.643 10.643 0 0 0 1.6-.623 3.012 3.012 0 0 0-.757-.782c-.448-.3-.969-.484-1.428-.772a3.43 3.43 0 0 1-.593-.477z" fill="#ffcabf"/><path d="M41.089 33.3a3.012 3.012 0 0 0-.757-.782c-.448-.3-.969-.484-1.428-.772a3.584 3.584 0 0 1-1.564-2.177c-.278-1.16.422-1.557.851-2.508a1.475 1.475 0 0 0-.43-1.722c-1.065-.82-3.14-.263-4.23.227a7.11 7.11 0 0 0-3.155 3.011 5.993 5.993 0 0 0-.576 5.293 4.683 4.683 0 0 0 .306.533h6.314a10.443 10.443 0 0 0 4.669-1.103z" fill="none" stroke="#45413c" stroke-linecap="round" stroke-linejoin="round" stroke-width="1.25px"/></svg>