<svg xmlns="http://www.w3.org/2000/svg" viewBox="0 0 50 50"><defs/><path d="M41.067 8.355a13.815 13.815 0 0 1 7.375 13.126 3.242 3.242 0 0 1-1.189 2.307c-5.819 5.251-12.819 12.251-29.319 16.751l-4-19C22.266 16 29.5 12.47 38.348 8.239a2.93 2.93 0 0 1 2.719.116z" stroke="#45413c" stroke-linecap="round" stroke-linejoin="round" stroke-width="1.25px" fill="#f0d5a8"/><path d="M39.015 7.325c3.513 1.948 3.343 9.564 2.891 14.152a4.2 4.2 0 0 1-4.014 3.778c-5.924.244-17.933.234-25.458-3.216C19.4 16.069 27.419 11.515 36.219 7.3a3.067 3.067 0 0 1 2.796.025z" fill="#f7e5c6"/><path d="M38.219 10.3a3.067 3.067 0 0 1 2.8.024 3.851 3.851 0 0 1 .318.222 5.466 5.466 0 0 0-2.318-3.222 3.067 3.067 0 0 0-2.8-.024c-8.8 4.214-16.819 8.768-23.785 14.738a26.7 26.7 0 0 0 3.951 1.4A111.838 111.838 0 0 1 38.219 10.3z" fill="#fff5e3"/><path d="M39.015 7.325c3.513 1.948 3.343 9.564 2.891 14.152a4.2 4.2 0 0 1-4.014 3.778c-5.924.244-17.933.234-25.458-3.216C19.4 16.069 27.419 11.515 36.219 7.3a3.067 3.067 0 0 1 2.796.025z" fill="none" stroke="#45413c" stroke-linecap="round" stroke-linejoin="round" stroke-width="1.25px"/><path d="M9.186 25.154c4.1-5.169 9.508-5.53 13.386-2.454s4.757 8.423.656 13.593-10.569 6.867-14.446 3.792-3.697-9.761.404-14.931z" fill="#debb7e"/><path d="M18.676 33.888a5.07 5.07 0 0 0-8.615-3.631 3.008 3.008 0 0 0-1.537-.43 3.045 3.045 0 0 0-3.045 3.045 3.014 3.014 0 0 0 .406 1.493 3.028 3.028 0 0 0 .751 5.471 3.005 3.005 0 0 0 4.4 1.767 3.042 3.042 0 1 0 5.088-3.334 5.055 5.055 0 0 0 2.552-4.381z" fill="#915e3a" stroke="#45413c" stroke-linecap="round" stroke-linejoin="round" stroke-width="1.25px"/><path d="M24.162 31.577a5.07 5.07 0 0 0-9.147-1.931 3.015 3.015 0 0 0-1.591-.131 3.046 3.046 0 0 0-2.412 3.568 3.007 3.007 0 0 0 .682 1.389 3.027 3.027 0 0 0 1.775 5.228 3.036 3.036 0 0 0 3.263 1.582 3 3 0 0 0 1.388-.682 3.042 3.042 0 1 0 4.363-4.238 5.054 5.054 0 0 0 1.679-4.785z" fill="#bf8256" stroke="#45413c" stroke-linecap="round" stroke-linejoin="round" stroke-width="1.25px"/><path d="M15.907 29.156a1.862 1.862 0 0 1-.163.043L3.983 31.786a2 2 0 1 1-.859-3.907l11.76-2.586a2 2 0 0 1 1.023 3.863z" fill="#ffdf3d" stroke="#45413c" stroke-linecap="round" stroke-linejoin="round" stroke-width="1.25px"/><path d="M22.608 30.6c-.028.048-.057.1-.09.142l-6.887 9.878a2 2 0 1 1-3.281-2.288l6.887-9.877a2 2 0 0 1 3.371 2.145z" fill="#ff6242" stroke="#45413c" stroke-linecap="round" stroke-linejoin="round" stroke-width="1.25px"/><path d="M20.033 25.256a3.033 3.033 0 0 0 .339-2.915c-.168-.411-.636-1.991-4.24-1.526a3.024 3.024 0 0 0-1.115 1 5.063 5.063 0 1 0-5.111 8.647 3.012 3.012 0 0 0 .186 1.585 3.044 3.044 0 0 0 3.973 1.661 3 3 0 0 0 1.227-.943 3.028 3.028 0 0 0 4.776-2.772 3.006 3.006 0 0 0-.035-4.738z" fill="#46b000" stroke="#45413c" stroke-linecap="round" stroke-linejoin="round" stroke-width="1.25px"/><path d="M19.564 29.688a1.834 1.834 0 0 1-.12-.037l-8.495-3.011a1.5 1.5 0 1 1 1-2.822l8.495 3.011a1.5 1.5 0 0 1-.88 2.859z" fill="#ffdf3d" stroke="#45413c" stroke-linecap="round" stroke-linejoin="round" stroke-width="1.25px"/><path d="M20.8 30.223a2.03 2.03 0 0 1-.143.089l-10.476 5.935a2 2 0 1 1-1.972-3.48l10.477-5.935a2 2 0 0 1 2.114 3.391z" fill="#fffce5" stroke="#45413c" stroke-linecap="round" stroke-linejoin="round" stroke-width="1.25px"/><path d="M23.284 36.216c4.032-5.146 3.146-10.456-.712-13.516a9.458 9.458 0 0 0-1.463-.959.921.921 0 0 0-1.148.241 2.411 2.411 0 0 0-.435 1.5 5.466 5.466 0 1 0 .363 10.836 3.224 3.224 0 0 0 3.395 1.9z" fill="#6dd627"/><path d="M17.056 26.364a6.351 6.351 0 0 1 2.144-2.628c-.072-.085-.145-.171-.219-.263a5.454 5.454 0 1 0 .61 10.874 6.577 6.577 0 0 1-1.482-1.224 6.35 6.35 0 0 1-1.053-6.759z" fill="#9ceb60"/><path d="M23.284 36.216c4.032-5.146 3.146-10.456-.712-13.516a9.458 9.458 0 0 0-1.463-.959.921.921 0 0 0-1.148.241 2.411 2.411 0 0 0-.435 1.5 5.466 5.466 0 1 0 .363 10.836 3.224 3.224 0 0 0 3.395 1.9z" fill="none" stroke="#45413c" stroke-linecap="round" stroke-linejoin="round" stroke-width="1.25px"/><circle cx="38.934" cy="16.539" r="1" fill="#ffbe3d"/><circle cx="36.934" cy="13.539" r="1" fill="#ffbe3d"/><circle cx="34.934" cy="17.539" r="1" fill="#ffbe3d"/></svg>