<?xml version="1.0" encoding="utf-8"?>
<!-- Generator: Adobe Illustrator 21.1.0, SVG Export Plug-In . SVG Version: 6.00 Build 0)  -->
<svg version="1.1" id="Icons" xmlns="http://www.w3.org/2000/svg" xmlns:xlink="http://www.w3.org/1999/xlink" x="0px" y="0px"
	 viewBox="0 0 48 48" style="enable-background:new 0 0 48 48;" xml:space="preserve">
<style type="text/css">
	.st0{opacity:0.15;fill:#45413C;}
	.st1{fill:#FF6196;}
	.st2{fill:#FF87AF;}
	.st3{fill:none;stroke:#45413C;stroke-linecap:round;stroke-linejoin:round;stroke-miterlimit:10;}
	.st4{fill:#FFE500;stroke:#45413C;stroke-linecap:round;stroke-linejoin:round;stroke-miterlimit:10;}
	.st5{fill:#FFE500;}
	.st6{fill:#EBCB00;}
	.st7{fill:#EBCB00;stroke:#45413C;stroke-linecap:round;stroke-linejoin:round;stroke-miterlimit:10;}
	.st8{fill:#FFF48C;}
	.st9{fill:#FFCCDD;stroke:#FFB0CA;stroke-linecap:round;stroke-linejoin:round;stroke-miterlimit:10;}
	.st10{fill:#FFB0CA;stroke:#FF87AF;stroke-linecap:round;stroke-linejoin:round;stroke-miterlimit:10;}
	.st11{opacity:0.7;fill:#FFE5EE;}
	.st12{fill:#009FD9;}
	.st13{fill:#00B8F0;}
	.st14{fill:#656769;}
	.st15{fill:#87898C;}
	.st16{fill:#FF6242;stroke:#45413C;stroke-linecap:round;stroke-linejoin:round;stroke-miterlimit:10;}
	.st17{fill:#4AEFF7;}
	.st18{fill:#00DFEB;}
	.st19{fill:#A6FBFF;}
	.st20{fill:#FFFFFF;}
	.st21{fill:#E5F8FF;}
	.st22{fill:#E5F8FF;stroke:#45413C;stroke-linecap:round;stroke-linejoin:round;stroke-miterlimit:10;}
	.st23{fill:#FFE500;stroke:#EBCB00;stroke-linecap:round;stroke-linejoin:round;stroke-miterlimit:10;}
	.st24{fill:#BDBEC0;}
	.st25{fill:#4ACFFF;}
	.st26{fill:#E8F4FA;stroke:#45413C;stroke-linecap:round;stroke-linejoin:round;stroke-miterlimit:10;}
	.st27{fill:#80DDFF;}
	.st28{fill:#009FD9;stroke:#45413C;stroke-linecap:round;stroke-linejoin:round;stroke-miterlimit:10;}
	.st29{fill:#B8ECFF;}
	.st30{fill:#4ACFFF;stroke:#45413C;stroke-linecap:round;stroke-linejoin:round;stroke-miterlimit:10;}
	.st31{fill:#B8ECFF;stroke:#45413C;stroke-linecap:round;stroke-linejoin:round;stroke-miterlimit:10;}
	.st32{fill:#FFFACF;}
	.st33{fill:#FFF48C;stroke:#45413C;stroke-linecap:round;stroke-linejoin:round;stroke-miterlimit:10;}
	.st34{fill:#BF8256;}
	.st35{fill:#DEA47A;}
	.st36{fill:#656769;stroke:#45413C;stroke-linecap:round;stroke-linejoin:round;stroke-miterlimit:10;}
	.st37{fill:#FF8A14;}
	.st38{fill:#FFAA54;}
	.st39{fill:#EB6D00;}
	.st40{fill:#627B8C;stroke:#45413C;stroke-linecap:round;stroke-linejoin:round;stroke-miterlimit:10;}
	.st41{fill:#FFFFFF;stroke:#45413C;stroke-linecap:round;stroke-linejoin:round;stroke-miterlimit:10;}
	.st42{fill:#E0366F;stroke:#45413C;stroke-linecap:round;stroke-linejoin:round;stroke-miterlimit:10;}
	.st43{fill:#FF87AF;stroke:#45413C;stroke-linecap:round;stroke-linejoin:round;stroke-miterlimit:10;}
	.st44{fill:#E0366F;}
	.st45{fill:#FF6196;stroke:#45413C;stroke-linecap:round;stroke-linejoin:round;stroke-miterlimit:10;}
	.st46{fill:#525252;}
	.st47{fill:#DEBB7E;}
	.st48{fill:#F0D5A8;}
	.st49{fill:#DAEDF7;}
	.st50{fill:#F7E5C6;}
	.st51{fill:#DEBB7E;stroke:#45413C;stroke-linecap:round;stroke-linejoin:round;stroke-miterlimit:10;}
	.st52{fill:#FFF5E3;}
	.st53{fill:#00F5BC;}
	.st54{fill:#FFB0CA;stroke:#45413C;stroke-linecap:round;stroke-linejoin:round;stroke-miterlimit:10;}
	.st55{fill:#8CFFE4;}
	.st56{fill:#00DBA8;}
	.st57{fill:#87898C;stroke:#45413C;stroke-linecap:round;stroke-linejoin:round;stroke-miterlimit:10;}
	.st58{fill:#FF6242;}
	.st59{fill:#FF866E;}
	.st60{fill:#F0F0F0;}
	.st61{fill:#BDBEC0;stroke:#45413C;stroke-width:1.0064;stroke-linecap:round;stroke-linejoin:round;stroke-miterlimit:10;}
	.st62{fill:#947746;stroke:#45413C;stroke-linecap:round;stroke-linejoin:round;stroke-miterlimit:10;}
	.st63{fill:#B89558;}
	.st64{fill:#E04122;}
	.st65{fill:#C0DCEB;}
	.st66{fill:#E8F4FA;}
	.st67{fill:#00B8F0;stroke:#45413C;stroke-linecap:round;stroke-linejoin:round;stroke-miterlimit:10;}
	.st68{fill:#80DDFF;stroke:#45413C;stroke-linecap:round;stroke-linejoin:round;stroke-miterlimit:10;}
	.st69{fill:#9CEB60;}
	.st70{fill:#C8FFA1;}
	.st71{fill:#FFB0CA;}
	.st72{fill:#FFCCDD;}
	.st73{fill:#FFE5EE;}
	.st74{fill:#45413C;stroke:#45413C;stroke-linecap:round;stroke-linejoin:round;stroke-miterlimit:10;}
	.st75{fill:#FFCABF;}
	.st76{fill:#FFA694;}
	.st77{fill:#FFA694;stroke:#45413C;stroke-linecap:round;stroke-linejoin:round;stroke-miterlimit:10;}
	.st78{fill:#FFCC99;}
	.st79{fill:#8CA4B8;}
	.st80{fill:#ADC4D9;}
	.st81{fill:#F0D5A8;stroke:#45413C;stroke-linecap:round;stroke-linejoin:round;stroke-miterlimit:10;}
	.st82{fill:#BDBEC0;stroke:#45413C;stroke-linecap:round;stroke-linejoin:round;stroke-miterlimit:10;}
	.st83{fill:#E0E0E0;}
	.st84{fill:#45413C;}
	.st85{fill:#E5FEFF;}
	.st86{fill:#FFFCE5;}
	.st87{fill:#FFAA54;stroke:#45413C;stroke-linecap:round;stroke-linejoin:round;stroke-miterlimit:10;}
	.st88{fill:#6DD627;}
	.st89{fill:#46B000;}
	.st90{fill:#FFE8E0;}
	.st91{fill:#FFCEBF;}
	.st92{fill:#FFE8D1;}
	.st93{fill:#FFF48C;stroke:#4F4B45;stroke-linecap:round;stroke-linejoin:round;stroke-miterlimit:10;}
	.st94{fill:#FFDCD1;stroke:#4F4B45;stroke-linejoin:round;stroke-miterlimit:10;}
	.st95{fill:none;stroke:#4F4B45;stroke-linejoin:round;stroke-miterlimit:10;}
	.st96{fill:none;stroke:#4F4B45;stroke-linecap:round;stroke-linejoin:round;stroke-miterlimit:10;}
	.st97{fill:#656769;stroke:#4F4B45;stroke-linejoin:round;stroke-miterlimit:10;}
	.st98{fill:#87898C;stroke:#4F4B45;stroke-linecap:round;stroke-linejoin:round;stroke-miterlimit:10;}
	.st99{fill:#C0DCEB;stroke:#4F4B45;stroke-linecap:round;stroke-linejoin:round;stroke-miterlimit:10;}
	.st100{fill:#FFA694;stroke:#4F4B45;stroke-linecap:round;stroke-linejoin:round;stroke-miterlimit:10;}
	.st101{fill:#E04122;stroke:#45413C;stroke-linecap:round;stroke-linejoin:round;stroke-miterlimit:10;}
	.st102{fill:#FFFCE5;stroke:#45413C;stroke-linecap:round;stroke-linejoin:round;stroke-miterlimit:10;}
	.st103{fill:#915E3A;}
	.st104{fill:none;stroke:#915E3A;stroke-linecap:round;stroke-linejoin:round;stroke-miterlimit:10;}
	.st105{fill:#915E3A;stroke:#45413C;stroke-linecap:round;stroke-linejoin:round;stroke-miterlimit:10;}
	.st106{fill:#FF866E;stroke:#45413C;stroke-linecap:round;stroke-linejoin:round;stroke-miterlimit:10;}
	.st107{fill:#FFF5E3;stroke:#45413C;stroke-linecap:round;stroke-linejoin:round;stroke-miterlimit:10;}
	.st108{fill:#FFDCD1;}
	.st109{fill:#FFDCD1;stroke:#45413C;stroke-linecap:round;stroke-linejoin:round;stroke-miterlimit:10;}
	.st110{fill:#F0C2A1;}
	.st111{fill:#FFE3CF;}
	.st112{fill:#FFFACF;stroke:#45413C;stroke-linecap:round;stroke-linejoin:round;stroke-miterlimit:10;}
	.st113{fill:#DEA47A;stroke:#45413C;stroke-linecap:round;stroke-linejoin:round;stroke-miterlimit:10;}
	.st114{fill:#F0C2A1;stroke:#45413C;stroke-linecap:round;stroke-linejoin:round;stroke-miterlimit:10;}
	.st115{fill:#EB6D00;stroke:#45413C;stroke-linecap:round;stroke-linejoin:round;stroke-miterlimit:10;}
	.st116{fill:#FF8A14;stroke:#45413C;stroke-linecap:round;stroke-linejoin:round;stroke-miterlimit:10;}
	.st117{fill:#D9FDFF;}
	.st118{fill:#C8FFA1;stroke:#45413C;stroke-linecap:round;stroke-linejoin:round;stroke-miterlimit:10;}
	.st119{fill:#E4FFD1;}
	.st120{fill:#E0E0E0;stroke:#45413C;stroke-linecap:round;stroke-linejoin:round;stroke-miterlimit:10;}
	.st121{fill:#FFCCDD;stroke:#45413C;stroke-linecap:round;stroke-linejoin:round;stroke-miterlimit:10;}
	.st122{fill:#BF8256;stroke:#45413C;stroke-linecap:round;stroke-linejoin:round;stroke-miterlimit:10;}
	.st123{fill:#C0DCEB;stroke:#45413C;stroke-linecap:round;stroke-linejoin:round;stroke-miterlimit:10;}
</style>
<g id="XMLID_11256_">
	<ellipse id="XMLID_11266_" class="st0" cx="26.4" cy="43.9" rx="15.8" ry="2.1"/>
	<path id="XMLID_11265_" class="st78" d="M45,10.1C45.1,7,44.1,5,43,3.7c-0.7-0.9-2.1-1.1-3-0.3c-0.8,0.8-0.8,2-0.1,2.8
		c0.7,0.8,1.6,2,1.6,3.9c0,3.2-1.6,6.6-7.7,8c-0.5-0.1-1-0.2-1.6-0.2l-11.8,0.6c-1.4,0.1-2.6-0.6-3.3-1.8l-1.7-3.9
		c-0.4-0.6-1-1.2-1.7-1.6c-0.1-0.5-0.4-1.1-0.8-1.8c-0.6-1.1-1.4-1.7-2-2c-0.4-0.2-0.9,0.1-1,0.6l-0.2,2.6c-1.4,0.2-2.9,0.6-3.9,2.1
		l-0.8,1.2L2.9,16c-0.4,0.4-0.5,0.9-0.3,1.4l0.7,3.2c0.3,0.9,1.1,1.6,2.1,1.9l3.8,1.2c0.9,0.3,1.7,1,1.9,2l0.8,3.4
		c0.6,1.9,1.8,3.4,3.4,4.5c0.2,1.4,0.3,2.8,0.3,3.5c-0.1,1-0.6,3.5-1,5.2C14.3,43.2,15,44,15.9,44h0.9c0.5,0,1-0.3,1.2-0.7
		c0.9-1.7,3.3-6.1,3.7-8c0.7-0.1,1.4-0.2,2.1-0.5l3.3-1.2c0.9-0.3,1.9-0.4,2.9-0.1c0.8,0.2,1.7,0.4,2.5,0.5c1,2.7,3,3.8,3,3.8
		l-0.5,4.6c-0.1,0.8,0.5,1.5,1.4,1.5h1.5c0.6,0,1.2-0.4,1.3-1l1.8-7.2c0,0-0.8-2.1-0.7-3.4l0.4-5.4c0.2-2.2-0.6-4.4-2-6.1
		c-0.1-0.1-0.2-0.2-0.3-0.3C42,18.9,44.9,15.7,45,10.1z"/>
	<g id="XMLID_11262_">
		<path id="XMLID_11264_" class="st92" d="M3.6,19.6c-0.2-0.5-0.1-1.1,0.3-1.5l2.4-2.3l0.9-1.3c1.1-1.6,2.7-2,4.2-2.3l0.2-2.7
			c0-0.5,0.6-0.8,1-0.6c-0.6-0.8-1.2-1.2-1.6-1.5c-0.4-0.2-0.9,0.1-1,0.6l-0.2,2.6c-1.4,0.2-2.9,0.6-3.9,2.1l-0.8,1.2L2.9,16
			c-0.4,0.4-0.5,0.9-0.3,1.4l0.7,3.2c0.2,0.5,0.4,0.9,0.8,1.2L3.6,19.6z"/>
		<path id="XMLID_11263_" class="st92" d="M19.3,18.9c0.7,1.3,2.1,2.1,3.6,2l12.7-0.6c0.6,0,1.1,0.1,1.7,0.2c1-0.2,1.9-0.5,2.7-0.8
			c2.9-1.8,4.9-4.8,5-9.5C45.1,7,44.1,5,43,3.7c-0.7-0.9-2.1-1.1-3-0.3c-0.8,0.8-0.8,2-0.1,2.8c0.7,0.8,1.6,2,1.6,3.9
			c0,3.2-1.6,6.6-7.7,8c-0.5-0.1-1-0.2-1.6-0.2l-11.8,0.6c-0.5,0-1-0.1-1.4-0.3L19.3,18.9z"/>
	</g>
	<path id="XMLID_11261_" class="st3" d="M45,10.1C45.1,7,44.1,5,43,3.7c-0.7-0.9-2.1-1.1-3-0.3c-0.8,0.8-0.8,2-0.1,2.8
		c0.7,0.8,1.6,2,1.6,3.9c0,3.2-1.6,6.6-7.7,8c-0.5-0.1-1-0.2-1.6-0.2l-11.8,0.6c-1.4,0.1-2.6-0.6-3.3-1.8l-1.7-3.9
		c-0.4-0.6-1-1.2-1.7-1.6c-0.1-0.5-0.4-1.1-0.8-1.8c-0.6-1.1-1.4-1.7-2-2c-0.4-0.2-0.9,0.1-1,0.6l-0.2,2.6c-1.4,0.2-2.9,0.6-3.9,2.1
		l-0.8,1.2L2.9,16c-0.4,0.4-0.5,0.9-0.3,1.4l0.7,3.2c0.3,0.9,1.1,1.6,2.1,1.9l3.8,1.2c0.9,0.3,1.7,1,1.9,2l0.8,3.4
		c0.6,1.9,1.8,3.4,3.4,4.5c0.2,1.4,0.3,2.8,0.3,3.5c-0.1,1-0.6,3.5-1,5.2C14.3,43.2,15,44,15.9,44h0.9c0.5,0,1-0.3,1.2-0.7
		c0.9-1.7,3.3-6.1,3.7-8c0.7-0.1,1.4-0.2,2.1-0.5l3.3-1.2c0.9-0.3,1.9-0.4,2.9-0.1c0.8,0.2,1.7,0.4,2.5,0.5c1,2.7,3,3.8,3,3.8
		l-0.5,4.6c-0.1,0.8,0.5,1.5,1.4,1.5h1.5c0.6,0,1.2-0.4,1.3-1l1.8-7.2c0,0-0.8-2.1-0.7-3.4l0.4-5.4c0.2-2.2-0.6-4.4-2-6.1
		c-0.1-0.1-0.2-0.2-0.3-0.3C42,18.9,44.9,15.7,45,10.1z"/>
	<path id="XMLID_11260_" class="st3" d="M21.7,35.2c0.4-2.4,0.7-5,0.7-5"/>
	<path id="XMLID_11259_" class="st3" d="M35.4,37.8c0,0-4.2-2.2-3.4-8.2"/>
	<circle id="XMLID_11258_" class="st84" cx="8.1" cy="15.2" r="1.1"/>
	<ellipse id="XMLID_11257_" class="st38" cx="11.4" cy="17.9" rx="1.1" ry="0.5"/>
</g>
</svg>
