<svg xmlns="http://www.w3.org/2000/svg" viewBox="0 0 50 50"><defs/><path d="M38.307 22.077c-2.371 4.519-17.5 12.094-26.055 12.076A11.586 11.586 0 0 1 3.558 30c-2.5-3.17-1.261-9.244-1.029-12.122.355-4.408 19.184-8.485 27.716-7.8s11.126 6.159 8.062 11.999z" fill="#fff"/><path d="M30.245 10.085c-8.532-.688-27.361 3.389-27.716 7.8a60.4 60.4 0 0 0-.5 6.531c2.561 3.536 7.263 5.855 16.321 2.549 6.194-2.261 14.525-9.674 20.683-6.668l.035-.015c.067-.2.131-.424.193-.652 1.239-4.846-1.695-8.954-9.016-9.545z" fill="#f0f0f0"/><path d="M38.307 22.077c-2.371 4.519-17.5 12.094-26.055 12.076A11.586 11.586 0 0 1 3.558 30c-2.5-3.17-1.261-9.244-1.029-12.122.355-4.408 19.184-8.485 27.716-7.8s11.126 6.159 8.062 11.999z" fill="none" stroke-linecap="round" stroke-linejoin="round" stroke-width="1.25px" stroke="#45413c"/><path d="M1.91 19.337a8.718 8.718 0 0 0 5.834 6.207A12.039 12.039 0 0 0 18.87 23.6c4.47-3.352 12.272-8.183 17.55-5.8a2.551 2.551 0 0 0 1.658.131 2.661 2.661 0 0 0 2.016-2.9c-.461-3.749-4.694-10.777-14.889-10.87C16.321 4.079 11.6 7.148 7.871 9.293a12.265 12.265 0 0 0-5.725 7 5.929 5.929 0 0 0-.236 3.044z" fill="#ff6242"/><path d="M3.662 22.488a5.925 5.925 0 0 1 .238-3.041 12.262 12.262 0 0 1 5.724-7c3.73-2.147 8.45-5.217 17.334-5.135 6.34.058 10.371 2.8 12.626 5.761-1.425-3.817-5.769-8.833-14.379-8.912C16.321 4.079 11.6 7.147 7.871 9.293a12.265 12.265 0 0 0-5.725 7 5.929 5.929 0 0 0-.236 3.042 9.357 9.357 0 0 0 1.917 3.627c-.053-.162-.117-.306-.165-.474z" fill="#ff866e"/><path d="M3.774 22.929a53.119 53.119 0 0 1 6.544-15.037M8.9 25.877a45.053 45.053 0 0 1 2.333-9.433 29.175 29.175 0 0 1 7.839-11.781m-3.007 20.542a43.756 43.756 0 0 1 2.142-8.2A29.568 29.568 0 0 1 25.4 5.819a43.96 43.96 0 0 1 1.758-1.551M24.365 20q.369-1.23.82-2.435a29.557 29.557 0 0 1 7.19-11.187q.267-.253.542-.5m-1.106 11.383A29.5 29.5 0 0 1 37.1 9.043" stroke="#ffa694" fill="none" stroke-linecap="round" stroke-linejoin="round" stroke-width="1.25px"/><path d="M1.91 19.337a8.718 8.718 0 0 0 5.834 6.207A12.039 12.039 0 0 0 18.87 23.6c4.47-3.352 12.272-8.183 17.55-5.8a2.551 2.551 0 0 0 1.658.131h0a2.661 2.661 0 0 0 2.016-2.9c-.461-3.749-4.694-10.777-14.889-10.87C16.321 4.079 11.6 7.148 7.871 9.293a12.265 12.265 0 0 0-5.725 7 5.929 5.929 0 0 0-.236 3.044z" fill="none" stroke-linecap="round" stroke-linejoin="round" stroke-width="1.25px" stroke="#45413c"/><path d="M46.394 33.765c-2.371 4.519-17.5 12.094-26.055 12.076a11.59 11.59 0 0 1-8.695-4.149c-2.5-3.17-1.261-9.244-1.029-12.122.356-4.408 19.184-8.485 27.717-7.8s11.126 6.155 8.062 11.995z" fill="#fff"/><path d="M38.332 21.773c-8.533-.688-27.361 3.389-27.717 7.8a60.4 60.4 0 0 0-.505 6.527c2.561 3.536 7.264 5.855 16.321 2.549 6.195-2.261 14.526-9.674 20.684-6.668l.034-.015c.067-.2.131-.424.194-.652 1.245-4.842-1.69-8.95-9.011-9.541z" fill="#f0f0f0"/><path d="M46.394 33.765c-2.371 4.519-17.5 12.094-26.055 12.076a11.59 11.59 0 0 1-8.695-4.149c-2.5-3.17-1.261-9.244-1.029-12.122.356-4.408 19.184-8.485 27.717-7.8s11.126 6.155 8.062 11.995z" fill="none" stroke-linecap="round" stroke-linejoin="round" stroke-width="1.25px" stroke="#45413c"/><path d="M10 31.025a8.718 8.718 0 0 0 5.835 6.206 12.033 12.033 0 0 0 11.125-1.943c4.47-3.352 12.272-8.183 17.55-5.8a2.552 2.552 0 0 0 1.658.131 2.66 2.66 0 0 0 2.016-2.9c-.46-3.747-4.69-10.775-14.888-10.868-8.884-.082-13.6 2.986-17.335 5.132a12.263 12.263 0 0 0-5.724 7A5.929 5.929 0 0 0 10 31.025z" fill="#ff8a14"/><path d="M13.662 35.334a5.929 5.929 0 0 1 .236-3.042 12.27 12.27 0 0 1 5.725-7c3.731-2.145 8.451-5.213 17.334-5.132a16.36 16.36 0 0 1 10.089 3.212c-1.884-3.541-6.164-7.451-13.754-7.52-8.884-.082-13.6 2.986-17.335 5.132a12.263 12.263 0 0 0-5.724 7A5.929 5.929 0 0 0 10 31.025a8.664 8.664 0 0 0 4.038 5.38 11.2 11.2 0 0 1-.376-1.071z" fill="#ffaa54"/><path d="M11.861 34.617A53.088 53.088 0 0 1 18.4 19.58m-1.416 17.984a45.026 45.026 0 0 1 2.332-9.432 29.175 29.175 0 0 1 7.842-11.781m-3.006 20.542a43.766 43.766 0 0 1 2.142-8.2 29.569 29.569 0 0 1 7.19-11.187 43.095 43.095 0 0 1 1.758-1.551m-2.791 15.737q.37-1.23.82-2.435a29.583 29.583 0 0 1 7.191-11.188q.267-.252.542-.5M39.9 28.949a29.519 29.519 0 0 1 5.293-8.218" stroke="#fc9" fill="none" stroke-linecap="round" stroke-linejoin="round" stroke-width="1.25px"/><path d="M10 31.025a8.718 8.718 0 0 0 5.835 6.206 12.033 12.033 0 0 0 11.125-1.943c4.47-3.352 12.272-8.183 17.55-5.8a2.552 2.552 0 0 0 1.658.131h0a2.66 2.66 0 0 0 2.016-2.9c-.46-3.747-4.69-10.775-14.888-10.868-8.884-.082-13.6 2.986-17.335 5.132a12.263 12.263 0 0 0-5.724 7A5.929 5.929 0 0 0 10 31.025z" fill="none" stroke-linecap="round" stroke-linejoin="round" stroke-width="1.25px" stroke="#45413c"/></svg>