<svg xmlns="http://www.w3.org/2000/svg" viewBox="0 0 50 50"><defs></defs><path d="M25 17.625c-13.136.067-23.5 5.411-23.5 12S10.154 47.242 25 47.366c14.846-.124 23.5-11.154 23.5-17.744S38.136 17.692 25 17.625z" fill="#e0e0e0"></path><path d="M25 45.119A28.59 28.59 0 0 1 3.275 35.5C6.515 41.282 14.079 47.275 25 47.366c10.921-.091 18.485-6.084 21.725-11.869A28.59 28.59 0 0 1 25 45.119z" fill="#bdbec0"></path><path d="M25 17.625c-13.136.067-23.5 5.411-23.5 12S10.154 47.242 25 47.366c14.846-.124 23.5-11.154 23.5-17.744S38.136 17.692 25 17.625z" stroke="#45413c" stroke-linecap="round" stroke-linejoin="round" stroke-width="1.25px" fill="none"></path><path d="M45.5 29.872c0 6.351-9.178 10.5-20.5 10.5s-20.5-4.149-20.5-10.5 9.178-12.5 20.5-12.5 20.5 6.148 20.5 12.5z" fill="#fff48c" stroke="#45413c" stroke-linecap="round" stroke-linejoin="round" stroke-width="1.25px"></path><path d="M24.356 40.357a28.713 28.713 0 0 0-12.1-4.711 35.254 35.254 0 0 0-5.221-.471c3.394 3.165 9.855 5.077 17.321 5.182z" fill="#ffe500" stroke="#45413c" stroke-linecap="round" stroke-linejoin="round" stroke-width="1.25px"></path><path d="M27.682 40.283c-2.673-3.165-8.044-5.726-14.348-6.785a33.643 33.643 0 0 0-7.96-.4 9.654 9.654 0 0 0 2.778 2.988 32.111 32.111 0 0 1 4.674.43 27.03 27.03 0 0 1 10.3 3.812 46.08 46.08 0 0 0 1.871.043 44.54 44.54 0 0 0 2.685-.088z" fill="#fff48c" stroke="#45413c" stroke-linecap="round" stroke-linejoin="round" stroke-width="1.25px"></path><path d="M27.879 40.18a1.53 1.53 0 0 0 .4-2.128c-2.408-3.516-8.134-6.41-14.943-7.554a33.3 33.3 0 0 0-8.52-.366 1.468 1.468 0 0 0-.285.056 6.515 6.515 0 0 0 .869 2.974 30.377 30.377 0 0 1 7.422.355c5.836.98 11.03 3.5 12.925 6.265a1.516 1.516 0 0 0 .7.556q.627-.02 1.243-.056a1.6 1.6 0 0 0 .189-.102zm14.078-17.089a31.172 31.172 0 0 1-10.35-4.991 30.248 30.248 0 0 0-5.484-.693c2.686 3.751 8.275 7.14 15.036 9.032 1.275.357 2.557.631 3.831.857a11.184 11.184 0 0 0-3.033-4.205z" fill="#ffe500" stroke="#45413c" stroke-linecap="round" stroke-linejoin="round" stroke-width="1.25px"></path><path d="M26.936 17.982a1.713 1.713 0 0 0-.49-.562c-.48-.022-.958-.048-1.446-.048-.187 0-.367.015-.553.018a1.715 1.715 0 0 0-.54 2.223c2.271 4.217 8.323 8.134 15.8 10.225a39.474 39.474 0 0 0 5.7 1.141 6.339 6.339 0 0 0 .1-1.107 7.1 7.1 0 0 0-.431-2.395 36.787 36.787 0 0 1-4.439-.951c-6.411-1.793-11.914-5.226-13.701-8.544z" fill="#fff48c" stroke="#45413c" stroke-linecap="round" stroke-linejoin="round" stroke-width="1.25px"></path><path d="M43.775 34.314a7.09 7.09 0 0 0 1.617-3.271 35.617 35.617 0 0 1-6.244-1.165c-6.4-1.793-11.907-5.226-13.694-8.544a1.72 1.72 0 1 0-3.029 1.632c2.271 4.216 8.323 8.133 15.8 10.225a39.7 39.7 0 0 0 5.55 1.123z" fill="#ffe500" stroke="#45413c" stroke-linecap="round" stroke-linejoin="round" stroke-width="1.25px"></path><path d="M29.7 27.916a1.72 1.72 0 0 0 .32-3.15c-4.2-2.308-11.406-2.313-18.817-.013a39.314 39.314 0 0 0-6.184 2.519 7.179 7.179 0 0 0-.521 2.6 6.359 6.359 0 0 0 .2 1.509 34.213 34.213 0 0 1 7.523-3.342c6.351-1.971 12.836-2.075 16.139-.259a1.713 1.713 0 0 0 1.34.136z" fill="#fff48c" stroke="#45413c" stroke-linecap="round" stroke-linejoin="round" stroke-width="1.25px"></path><path d="M29.127 24.3a1.72 1.72 0 0 0 .319-3.15c-4.173-2.3-11.327-2.31-18.695-.048a13.4 13.4 0 0 0-5.713 6.135 35.078 35.078 0 0 1 6.612-2.814c6.35-1.971 12.836-2.075 16.138-.259a1.712 1.712 0 0 0 1.339.136z" fill="#ffe500" stroke="#45413c" stroke-linecap="round" stroke-linejoin="round" stroke-width="1.25px"></path><path d="M15.4 23.493a1.719 1.719 0 0 1 1.051.841c1.787 3.318 7.29 6.751 13.694 8.544a33.916 33.916 0 0 0 8.59 1.3 1.72 1.72 0 0 1-.041 3.44 37.4 37.4 0 0 1-9.476-1.426c-7.47-2.092-13.518-6.01-15.793-10.226a1.72 1.72 0 0 1 1.975-2.473z" fill="#fff48c" stroke="#45413c" stroke-linecap="round" stroke-linejoin="round" stroke-width="1.25px"></path><path d="M17.4 20.493a1.719 1.719 0 0 1 1.051.841c1.787 3.318 7.29 6.751 13.694 8.544a33.916 33.916 0 0 0 8.59 1.3 1.72 1.72 0 0 1-.041 3.44 37.4 37.4 0 0 1-9.476-1.426c-7.47-2.092-13.518-6.01-15.793-10.226a1.72 1.72 0 0 1 1.975-2.473zm9.72 19.829c6.375-.3 11.87-1.951 15.152-4.567a31.573 31.573 0 0 0-12.66 3.261 38.67 38.67 0 0 0-2.492 1.306z" fill="#ffe500" stroke="#45413c" stroke-linecap="round" stroke-linejoin="round" stroke-width="1.25px"></path><path d="M44.459 33.371c-4.168-.59-9.731.514-15.216 3.11a36.558 36.558 0 0 0-6.366 3.841c.7.032 1.406.05 2.123.05a43.15 43.15 0 0 0 4.188-.2c.478-.254.957-.507 1.452-.741a29.76 29.76 0 0 1 10.57-2.916 10.473 10.473 0 0 0 3.249-3.144z" fill="#fff48c" stroke="#45413c" stroke-linecap="round" stroke-linejoin="round" stroke-width="1.25px"></path><path d="M45.28 31.444a1.525 1.525 0 0 0-.181-.09c-4.252-1.609-11.028-.65-17.686 2.5a35.514 35.514 0 0 0-7.681 4.875 1.62 1.62 0 0 0-.569 1.248c1.23.17 2.506.289 3.821.347a33.3 33.3 0 0 1 5.826-3.518c5.6-2.65 11.554-3.622 14.936-2.462a7.209 7.209 0 0 0 1.534-2.9z" fill="#fff48c" stroke="#45413c" stroke-linecap="round" stroke-linejoin="round" stroke-width="1.25px"></path><path d="M29.717 16.923a36.919 36.919 0 0 0-14.519 1.7 59.158 59.158 0 0 0-3.3 1.134 5.856 5.856 0 0 0-3.7 3.2 1.808 1.808 0 0 0-.035 1.413 1.911 1.911 0 0 0 .568.63 5.763 5.763 0 0 0 2.579 1.137 3.5 3.5 0 0 1 1.558.442 2.254 2.254 0 0 1 .675 1.954 6.774 6.774 0 0 0 .016 2.142 3.349 3.349 0 0 0 2.641 2.087 4.454 4.454 0 0 0 2.421-.094 12.291 12.291 0 0 0 2.743-1.858 5.9 5.9 0 0 1 5.458-.89c.743.3 1.395.783 2.119 1.124a5.5 5.5 0 0 0 4.206.23 4.689 4.689 0 0 0 2.87-3.025 1.6 1.6 0 0 0 .028-.989c-.2-.527-.819-.813-.987-1.35-.2-.644.37-1.3 1-1.535A19.279 19.279 0 0 1 38.049 24a2.355 2.355 0 0 0 1.862-1.982c.055-1.15-1-2.027-2-2.59a21.289 21.289 0 0 0-8.194-2.505z" fill="#ff6242"></path><path d="M35.436 26.471a4.8 4.8 0 0 1-2.287 1.8 5.5 5.5 0 0 1-4.206-.23c-.724-.341-1.376-.827-2.119-1.124a5.9 5.9 0 0 0-5.458.89 12.291 12.291 0 0 1-2.743 1.858 4.454 4.454 0 0 1-2.421.094 3.349 3.349 0 0 1-2.647-2.083 6.774 6.774 0 0 1-.016-2.142 2.254 2.254 0 0 0-.675-1.954 3.5 3.5 0 0 0-1.558-.442A5.763 5.763 0 0 1 8.727 22l-.013-.011a4.278 4.278 0 0 0-.52.968 1.808 1.808 0 0 0-.035 1.413 1.911 1.911 0 0 0 .568.63 5.763 5.763 0 0 0 2.579 1.137 3.5 3.5 0 0 1 1.558.442 2.254 2.254 0 0 1 .675 1.954 6.774 6.774 0 0 0 .016 2.142 3.349 3.349 0 0 0 2.645 2.087 4.454 4.454 0 0 0 2.421-.094 12.291 12.291 0 0 0 2.743-1.858 5.9 5.9 0 0 1 5.458-.89c.743.3 1.395.783 2.119 1.124a5.5 5.5 0 0 0 4.206.23 4.693 4.693 0 0 0 2.87-3.025 1.6 1.6 0 0 0 .028-.989 2.555 2.555 0 0 0-.609-.789zM38.049 21a19.279 19.279 0 0 0-1.987.372c-.632.235-1.2.891-1 1.535.168.537.789.823.987 1.35.013.036.017.074.027.112A19.873 19.873 0 0 1 38.049 24a2.355 2.355 0 0 0 1.862-1.982 2.21 2.21 0 0 0-.716-1.63 2.8 2.8 0 0 1-1.146.612z" fill="#e04122"></path><path d="M29.717 16.923a36.919 36.919 0 0 0-14.519 1.7 59.158 59.158 0 0 0-3.3 1.134 5.856 5.856 0 0 0-3.7 3.2 1.808 1.808 0 0 0-.035 1.413 1.911 1.911 0 0 0 .568.63 5.763 5.763 0 0 0 2.579 1.137 3.5 3.5 0 0 1 1.558.442 2.254 2.254 0 0 1 .675 1.954 6.774 6.774 0 0 0 .016 2.142 3.349 3.349 0 0 0 2.641 2.087 4.454 4.454 0 0 0 2.421-.094 12.291 12.291 0 0 0 2.743-1.858 5.9 5.9 0 0 1 5.458-.89c.743.3 1.395.783 2.119 1.124a5.5 5.5 0 0 0 4.206.23 4.689 4.689 0 0 0 2.87-3.025 1.6 1.6 0 0 0 .028-.989c-.2-.527-.819-.813-.987-1.35-.2-.644.37-1.3 1-1.535A19.279 19.279 0 0 1 38.049 24a2.355 2.355 0 0 0 1.862-1.982c.055-1.15-1-2.027-2-2.59a21.289 21.289 0 0 0-8.194-2.505z" stroke="#45413c" stroke-linecap="round" stroke-linejoin="round" stroke-width="1.25px" fill="none"></path><path d="M9.764 7.289a2.075 2.075 0 0 0 2.088 1.654l4.893-.024a1 1 0 0 1 1 .995h0a1 1 0 0 1-1 1.005l-4.893.024a2.074 2.074 0 0 0-2.071 1.674 2 2 0 0 0 1.984 2.327l9-.045a3 3 0 0 0 2.985-3.015h0l16.903-.084a2.074 2.074 0 0 0 2.071-1.674A2 2 0 0 0 40.74 7.8l-17 .084h0A3 3 0 0 0 20.725 4.9l-9 .045a2 2 0 0 0-1.961 2.344z" fill="#c0dceb" stroke-linecap="round" stroke-linejoin="round" stroke-width="1.25px" stroke="#45413c"></path><path d="M15.253 37a1.5 1.5 0 0 1-1.17-.561 13.907 13.907 0 0 1-2.683-6.104 32.074 32.074 0 0 1-.461-6.285 69.439 69.439 0 0 1 2.71-20.356 1.5 1.5 0 0 1 2.868.883 66.527 66.527 0 0 0-2.582 19.481 28.742 28.742 0 0 0 .4 5.7 10.961 10.961 0 0 0 2.082 4.808A1.5 1.5 0 0 1 15.253 37z" fill="#fff48c" stroke="#45413c" stroke-linecap="round" stroke-linejoin="round" stroke-width="1.25px"></path><path d="M15.933 16.372a1.5 1.5 0 0 0 1.487-1.349 56.451 56.451 0 0 1 2.1-10.446 1.5 1.5 0 0 0-1.24-1.929 1.547 1.547 0 0 0-1.651 1.112 59.58 59.58 0 0 0-2.19 10.961 1.5 1.5 0 0 0 1.494 1.651z" fill="#ffe500" stroke="#45413c" stroke-linecap="round" stroke-linejoin="round" stroke-width="1.25px"></path><path d="M18.933 16.372a1.5 1.5 0 0 0 1.487-1.349 56.451 56.451 0 0 1 2.1-10.446 1.5 1.5 0 0 0-1.24-1.929 1.547 1.547 0 0 0-1.651 1.112 59.58 59.58 0 0 0-2.19 10.961 1.5 1.5 0 0 0 1.494 1.651z" fill="#ffe500" stroke="#45413c" stroke-linecap="round" stroke-linejoin="round" stroke-width="1.25px"></path><ellipse cx="20.062" cy="25.684" rx="2.812" ry="1.688" fill="#f0d5a8" stroke="#45413c" stroke-linecap="round" stroke-linejoin="round" stroke-width="1.25px"></ellipse><ellipse cx="26.937" cy="20.059" rx="2.812" ry="1.688" fill="#f0d5a8" stroke="#45413c" stroke-linecap="round" stroke-linejoin="round" stroke-width="1.25px"></ellipse><ellipse cx="31.25" cy="30.572" rx="5" ry="3" fill="#f0d5a8" stroke="#45413c" stroke-linecap="round" stroke-linejoin="round" stroke-width="1.25px"></ellipse><path d="M39.789 16.7a8.705 8.705 0 0 0-.845-.033 6.728 6.728 0 0 0-4.234 1.758 5.311 5.311 0 0 0-1.419 1.88c-.894 2.124 1.12 4.3 3.66 4.2 4.035-.148 6.246-4.151 6.951-5.695a.754.754 0 0 0-.312-.967 9.477 9.477 0 0 0-3.801-1.143z" fill="#6dd627"></path><path d="M39 19.618a14.016 14.016 0 0 0-5.685 2.824" stroke="#46b000" stroke-linecap="round" stroke-linejoin="round" stroke-width="1.25px" fill="none"></path><path d="M39.789 16.7a8.705 8.705 0 0 0-.845-.033 6.728 6.728 0 0 0-4.234 1.758 5.311 5.311 0 0 0-1.419 1.88c-.894 2.124 1.12 4.3 3.66 4.2 4.035-.148 6.246-4.151 6.951-5.695a.754.754 0 0 0-.312-.967 9.477 9.477 0 0 0-3.801-1.143z" stroke="#45413c" stroke-linecap="round" stroke-linejoin="round" stroke-width="1.25px" fill="none"></path></svg>