<svg xmlns="http://www.w3.org/2000/svg" viewBox="0 0 50 50"><defs/><path d="M48.253 19.317c0-5.706-10.409-10.333-23.25-10.333s-23.25 4.627-23.25 10.333c0 1.914-1.033 23.174 23.767 23.059 21.73-.101 22.733-21.414 22.733-23.059z" fill="#fff"/><path d="M25.52 38.376C5.642 38.468 2.364 24.835 1.844 18.432a4.7 4.7 0 0 0-.091.885c0 1.914-1.033 23.174 23.767 23.059 21.73-.1 22.733-21.414 22.733-23.059a4.782 4.782 0 0 0-.219-1.4C47.205 24 43.308 38.293 25.52 38.376z" fill="#e8f4fa"/><path d="M48.253 19.317c0-5.706-10.409-10.333-23.25-10.333s-23.25 4.627-23.25 10.333c0 1.914-1.033 23.174 23.767 23.059 21.73-.101 22.733-21.414 22.733-23.059z" fill="none" stroke="#45413c" stroke-linecap="round" stroke-linejoin="round" stroke-width="1.25px"/><ellipse cx="25.003" cy="18.514" rx="23.25" ry="10.333" fill="#daedf7" stroke-linecap="round" stroke-linejoin="round" stroke-width="1.25px" stroke="#45413c"/><path d="M24.745 11.166c-11.557 0-20.925 4.9-20.925 10.944a5.644 5.644 0 0 0 .065.725c3.681 3.548 11.75 6.012 21.115 6.012 8.89 0 16.612-2.219 20.524-5.477a5.782 5.782 0 0 0 .143-1.26c.003-6.044-9.367-10.944-20.922-10.944z" fill="#ffdf3d"/><path d="M24.745 11.166c-11.557 0-20.925 4.9-20.925 10.944a5.644 5.644 0 0 0 .065.725 13.465 13.465 0 0 0 2.376 1.785c.253-5.231 8.422-9.433 18.484-9.433 10.221 0 18.508 4.334 18.508 9.68v.04a15.252 15.252 0 0 0 2.276-1.537 5.782 5.782 0 0 0 .143-1.26c-.002-6.044-9.372-10.944-20.927-10.944z" fill="#ffef9e"/><path d="M24.745 11.166c-11.557 0-20.925 4.9-20.925 10.944a5.644 5.644 0 0 0 .065.725c3.681 3.548 11.75 6.012 21.115 6.012 8.89 0 16.612-2.219 20.524-5.477a5.782 5.782 0 0 0 .143-1.26c.003-6.044-9.367-10.944-20.922-10.944z" fill="none" stroke="#45413c" stroke-linecap="round" stroke-linejoin="round" stroke-width="1.25px"/><path d="M17.884 17.452v-.038a2.869 2.869 0 0 0-3.547-1.92 2.869 2.869 0 0 0-2.444 3.206c0 .013.01.024.012.036a2.789 2.789 0 0 0-2.024 3.084 2.868 2.868 0 0 0 3.547 1.92 3.215 3.215 0 0 0 .421-.13c0 .013 0 .025.006.038.408 1.89.953 1.427 1.9 1.223s1.931-.071 1.524-1.961c-.02-.09-.048-.172-.07-.26a3.432 3.432 0 0 0 1.353-.017A2.868 2.868 0 0 0 21 19.427a2.789 2.789 0 0 0-3.116-1.975z" fill="#6dd627"/><path d="M12.905 21.741c0-.012-.009-.023-.012-.036a2.869 2.869 0 0 1 2.441-3.211 2.869 2.869 0 0 1 3.547 1.92v.038a3.251 3.251 0 0 1 1.951.42A2.34 2.34 0 0 0 21 19.427a2.789 2.789 0 0 0-3.116-1.975v-.038a2.869 2.869 0 0 0-3.547-1.92 2.869 2.869 0 0 0-2.444 3.206c0 .013.01.024.012.036a2.789 2.789 0 0 0-2.024 3.084 2.412 2.412 0 0 0 1.162 1.554 3.143 3.143 0 0 1 1.862-1.633z" fill="#9ceb60"/><path d="M17.884 17.452v-.038a2.869 2.869 0 0 0-3.547-1.92 2.869 2.869 0 0 0-2.444 3.206c0 .013.01.024.012.036a2.789 2.789 0 0 0-2.024 3.084 2.868 2.868 0 0 0 3.547 1.92 3.215 3.215 0 0 0 .421-.13c0 .013 0 .025.006.038.408 1.89.953 1.427 1.9 1.223s1.931-.071 1.524-1.961c-.02-.09-.048-.172-.07-.26a3.432 3.432 0 0 0 1.353-.017A2.868 2.868 0 0 0 21 19.427a2.789 2.789 0 0 0-3.116-1.975z" fill="none" stroke="#45413c" stroke-linecap="round" stroke-linejoin="round" stroke-width="1.25px"/><path d="m32.977 23.979.63-2.519a.77.77 0 0 1 .747-.584h5.628a.771.771 0 0 1 .771.77v1.677a.921.921 0 0 1-.488.819 9.722 9.722 0 0 1-6.547.972.934.934 0 0 1-.741-1.135zm-4.325-2.026-1.769-1.477a.685.685 0 0 0-.841-.028l-4.034 2.942a.682.682 0 0 0-.15.955l.876 1.2a.819.819 0 0 0 .778.333 8.634 8.634 0 0 0 5.2-2.726.829.829 0 0 0-.06-1.199z" stroke-linecap="round" stroke-linejoin="round" stroke-width="1.25px" stroke="#45413c" fill="#fff"/><ellipse cx="30.253" cy="14.921" rx="6.5" ry="4.045" fill="#bf8256"/><path d="M30.253 16.967c-3.034 0-5.576-1.3-6.292-3.046a2.633 2.633 0 0 0-.208 1c0 2.235 2.91 4.046 6.5 4.046s6.5-1.811 6.5-4.046a2.615 2.615 0 0 0-.209-1c-.716 1.75-3.257 3.046-6.291 3.046z" fill="#915e3a"/><ellipse cx="30.253" cy="14.921" rx="6.5" ry="4.045" fill="none" stroke="#45413c" stroke-linecap="round" stroke-linejoin="round" stroke-width="1.25px"/><path d="M29.017 12.651a5.084 5.084 0 0 1 2.383 2.092" stroke="#dea47a" fill="none" stroke-linecap="round" stroke-linejoin="round" stroke-width="1.25px"/><path d="M28.951 14.779a6.44 6.44 0 0 1 2.741-2.4" stroke="#dea47a" fill="none" stroke-linecap="round" stroke-linejoin="round" stroke-width="1.25px"/></svg>