<svg xmlns="http://www.w3.org/2000/svg" viewBox="0 0 50 50"><defs/><path d="M48.613 24.391a7.949 7.949 0 0 0-5.233-7.8c-2.421-.849-5.018-.59-7.5-1.112a15.346 15.346 0 0 1-6.5-3.536A30.628 30.628 0 0 0 24.763 8.6a16.819 16.819 0 0 0-2.882-1.287C16.684 5.565 10.2 5.815 5.9 9.536a13.536 13.536 0 0 0-4.253 7.013c-.224.955-.7 10.524 1.171 14.861A19.155 19.155 0 0 0 10.5 40c9.363 5.624 22.4 4.525 31.6-.874a14.105 14.105 0 0 0 5.018-4.162 9.377 9.377 0 0 0 1.49-4.843c.028-1.039-.016-4.797.005-5.73z" fill="#ff6242"/><path d="M48.613 27.258a9.371 9.371 0 0 1-1.49 4.842 14.1 14.1 0 0 1-5.018 4.162c-9.2 5.4-22.242 6.5-31.6.875a19.16 19.16 0 0 1-7.682-8.593c-.963-2.238-1.3-5.863-1.375-8.984-.086 3.429.093 8.872 1.375 11.85A19.155 19.155 0 0 0 10.5 40c9.363 5.624 22.4 4.525 31.6-.874a14.105 14.105 0 0 0 5.018-4.162 9.377 9.377 0 0 0 1.49-4.843c.012-.523.007-1.73 0-2.921z" fill="#e04122"/><path d="M48.613 24.391a7.949 7.949 0 0 0-5.233-7.8c-2.421-.849-5.018-.59-7.5-1.112a15.346 15.346 0 0 1-6.5-3.536A30.628 30.628 0 0 0 24.763 8.6a16.819 16.819 0 0 0-2.882-1.287C16.684 5.565 10.2 5.815 5.9 9.536a13.536 13.536 0 0 0-4.253 7.013c-.224.955-.7 10.524 1.171 14.861A19.155 19.155 0 0 0 10.5 40c9.363 5.624 22.4 4.525 31.6-.874a14.105 14.105 0 0 0 5.018-4.162 9.377 9.377 0 0 0 1.49-4.843c.028-1.039-.016-4.797.005-5.73z" stroke-linecap="round" stroke-linejoin="round" stroke-width="1.25px" stroke="#45413c" fill="none"/><path d="M24.763 8.6a16.819 16.819 0 0 0-2.882-1.287C16.684 5.565 10.2 5.815 5.9 9.536a13.536 13.536 0 0 0-4.253 7.013 15.656 15.656 0 0 0 1.171 9.128A19.155 19.155 0 0 0 10.5 34.27c9.363 5.624 22.4 4.525 31.6-.874a14.105 14.105 0 0 0 5.018-4.162 9.377 9.377 0 0 0 1.49-4.843 7.949 7.949 0 0 0-5.233-7.8c-2.421-.849-5.018-.59-7.5-1.112a15.346 15.346 0 0 1-6.5-3.536A30.628 30.628 0 0 0 24.763 8.6z" fill="#ffcabf" stroke-linecap="round" stroke-linejoin="round" stroke-width="1.25px" stroke="#45413c"/><path d="M26.66 12.93a18 18 0 0 0-1.954-1.273 13.954 13.954 0 0 0-2.4-1.071c-4.324-1.458-9.721-1.249-13.3 1.847A10.211 10.211 0 0 0 5.422 19.1c-.309 3.416 1.432 6.683 3.857 9.171C12.859 31.946 32.947 17.6 26.66 12.93z" fill="#ff866e"/><path d="M7.333 21.012a10.211 10.211 0 0 1 3.588-6.668c3.576-3.1 8.973-3.3 13.3-1.847a13.954 13.954 0 0 1 2.4 1.071c.372.209.717.42 1.04.633a2.9 2.9 0 0 0-1-1.271 18 18 0 0 0-1.954-1.273 13.954 13.954 0 0 0-2.4-1.071c-4.324-1.458-9.721-1.249-13.3 1.847A10.211 10.211 0 0 0 5.422 19.1c-.309 3.416 1.432 6.683 3.857 9.171a1.761 1.761 0 0 0 .607.384 11.1 11.1 0 0 1-2.553-7.643z" fill="#ffa694"/><path d="M26.66 12.93a18 18 0 0 0-1.954-1.273 13.954 13.954 0 0 0-2.4-1.071c-4.324-1.458-9.721-1.249-13.3 1.847A10.211 10.211 0 0 0 5.422 19.1c-.309 3.416 1.432 6.683 3.857 9.171C12.859 31.946 32.947 17.6 26.66 12.93z" stroke="#ff6242" fill="none" stroke-linecap="round" stroke-linejoin="round" stroke-width="1.25px"/><path d="M35.786 31.84a1.911 1.911 0 0 0 2.161.436 22.537 22.537 0 0 0 2.89-1.55 6.091 6.091 0 0 0 2.9-4.45 7.343 7.343 0 0 0-2.258-5.59 6.066 6.066 0 0 0-2.235-1.429c-1.888-.662-3.9-.514-5.826-.846a1.867 1.867 0 0 0-1.818.69 14.547 14.547 0 0 1-3.952 3.439 1.871 1.871 0 0 0 .084 3.207 35.481 35.481 0 0 1 8.054 6.093z" fill="#ff866e"/><path d="M29.557 24.451a14.547 14.547 0 0 0 3.952-3.439 1.867 1.867 0 0 1 1.818-.69c1.929.332 3.938.184 5.826.846a5.643 5.643 0 0 1 1.257.635 7.859 7.859 0 0 0-.933-1.117 6.066 6.066 0 0 0-2.235-1.429c-1.888-.662-3.9-.514-5.826-.846a1.867 1.867 0 0 0-1.818.69 14.547 14.547 0 0 1-3.952 3.439 1.871 1.871 0 0 0 .084 3.207c.345.2.668.407 1 .61a1.827 1.827 0 0 1 .827-1.906z" fill="#ffa694"/><path d="M35.786 31.84a1.911 1.911 0 0 0 2.161.436 22.537 22.537 0 0 0 2.89-1.55 6.091 6.091 0 0 0 2.9-4.45 7.343 7.343 0 0 0-2.258-5.59 6.066 6.066 0 0 0-2.235-1.429c-1.888-.662-3.9-.514-5.826-.846a1.867 1.867 0 0 0-1.818.69 14.547 14.547 0 0 1-3.952 3.439 1.871 1.871 0 0 0 .084 3.207 35.481 35.481 0 0 1 8.054 6.093z" stroke="#ff6242" fill="none" stroke-linecap="round" stroke-linejoin="round" stroke-width="1.25px"/><path d="M22.509 27.216a12.569 12.569 0 0 1-4.45 3.5 1.368 1.368 0 0 0 .118 2.5 23.636 23.636 0 0 0 11.3 1.4c.421-.052.836-.12 1.248-.2a1.36 1.36 0 0 0 .373-2.527 26.081 26.081 0 0 1-6.477-4.814 1.366 1.366 0 0 0-2.112.141z" fill="#ff866e"/><path d="M19.97 32.628a12.559 12.559 0 0 0 4.45-3.5 1.366 1.366 0 0 1 2.111-.144 24.771 24.771 0 0 0 5.263 4.1 1.328 1.328 0 0 0-.7-1.2 26.081 26.081 0 0 1-6.477-4.814 1.366 1.366 0 0 0-2.111.144 12.559 12.559 0 0 1-4.45 3.5 1.368 1.368 0 0 0 .118 2.5c.354.133.711.252 1.069.369a1.37 1.37 0 0 1 .727-.955z" fill="#ffa694"/><path d="M22.509 27.216a12.569 12.569 0 0 1-4.45 3.5 1.368 1.368 0 0 0 .118 2.5 23.636 23.636 0 0 0 11.3 1.4c.421-.052.836-.12 1.248-.2a1.36 1.36 0 0 0 .373-2.527 26.081 26.081 0 0 1-6.477-4.814 1.366 1.366 0 0 0-2.112.141z" stroke="#ff6242" fill="none" stroke-linecap="round" stroke-linejoin="round" stroke-width="1.25px"/><ellipse cx="16.42" cy="17.853" rx="3.822" ry="3.058" stroke="#fff" stroke-linecap="round" stroke-linejoin="round" stroke-width="1.25px" fill="#ff6242"/></svg>