<svg xmlns="http://www.w3.org/2000/svg" viewBox="0 0 50 50"><defs/><path d="M7.9 17.682a4.9 4.9 0 0 0 1.6-.291 6.066 6.066 0 0 1 5.856.773l2.2 1.721a2.311 2.311 0 0 0 3.414-.593 1.8 1.8 0 0 0 .055-.1 2.341 2.341 0 0 0-.241-2.573l-1.29-1.6a5.677 5.677 0 0 1-.976-5.541 4.921 4.921 0 0 0-9.073-3.8A3.874 3.874 0 0 1 6.7 7.913c-2.627.541-3.813 3.327-3.79 4.915a4.923 4.923 0 0 0 4.99 4.854z" fill="#f0f0f0"/><path d="M5.905 15.828c-.023-1.588 1.163-4.374 3.79-4.915a3.874 3.874 0 0 0 2.75-2.231 4.927 4.927 0 0 1 5.642-2.717 4.781 4.781 0 0 1 .462.148 4.915 4.915 0 0 0-9.1-.431A3.874 3.874 0 0 1 6.7 7.913c-2.627.541-3.813 3.327-3.79 4.915a4.908 4.908 0 0 0 3.3 4.561 4.867 4.867 0 0 1-.305-1.561z" fill="#fff"/><path d="M7.9 17.682a4.9 4.9 0 0 0 1.6-.291 6.066 6.066 0 0 1 5.856.773l2.2 1.721a2.311 2.311 0 0 0 3.414-.593 1.8 1.8 0 0 0 .055-.1 2.341 2.341 0 0 0-.241-2.573l-1.29-1.6a5.677 5.677 0 0 1-.976-5.541 4.921 4.921 0 0 0-9.073-3.8A3.874 3.874 0 0 1 6.7 7.913c-2.627.541-3.813 3.327-3.79 4.915a4.923 4.923 0 0 0 4.99 4.854z" fill="none" stroke="#45413c" stroke-linecap="round" stroke-linejoin="round" stroke-width="1.25px"/><path d="M23.306 42.823c6.123 6.124 13.54 5.467 19.007 0s6.915-13.675.792-19.8A16.616 16.616 0 0 0 32.554 18.1a29.388 29.388 0 0 1-8.749-2.264c-1.824-.722-2.769.744-4.687 2.662-1.484 1.484-3.844 2.99-2.791 5.433a22.71 22.71 0 0 1 2.038 7.973 16.57 16.57 0 0 0 4.941 10.919z" fill="#ff8a14"/><path d="M42.313 42.823a18.027 18.027 0 0 0 1.336-1.511c-5.276 4.2-11.93 4.267-17.515-1.317a16.575 16.575 0 0 1-4.941-10.916 22.7 22.7 0 0 0-2.038-7.974 2.932 2.932 0 0 1 .543-3.2c-.185.193-.375.389-.58.6-1.484 1.484-3.844 2.99-2.791 5.433a22.71 22.71 0 0 1 2.038 7.973 16.57 16.57 0 0 0 4.941 10.916c6.123 6.12 13.54 5.463 19.007-.004z" fill="#eb6d00"/><path d="M23.306 42.823c6.123 6.124 13.54 5.467 19.007 0s6.915-13.675.792-19.8A16.616 16.616 0 0 0 32.554 18.1a29.388 29.388 0 0 1-8.749-2.264c-1.824-.722-2.769.744-4.687 2.662-1.484 1.484-3.844 2.99-2.791 5.433a22.71 22.71 0 0 1 2.038 7.973 16.57 16.57 0 0 0 4.941 10.919z" fill="none" stroke="#45413c" stroke-linecap="round" stroke-linejoin="round" stroke-width="1.25px"/><circle cx="34.829" cy="26.563" r="2" fill="#ffaa54"/><circle cx="38.231" cy="31.798" r="1.207" fill="#ffaa54"/><circle cx="41.181" cy="26.141" r="1.414" fill="#ffaa54"/><circle cx="43.829" cy="31.563" r="1" fill="#ffaa54"/></svg>