<svg xmlns="http://www.w3.org/2000/svg" viewBox="0 0 50 50"><defs></defs><rect x="23.345" y="-4.492" width="3.31" height="58.985" rx="1.508" ry="1.508" transform="rotate(-45 25 25)" stroke-linecap="round" stroke-linejoin="round" stroke-width="1.25px" stroke="#45413c" fill="#b89558"></rect><path d="M43.954 31.028a69.012 69.012 0 0 1-12.036 12.038 5.588 5.588 0 0 1-7.375-.491 5.609 5.609 0 0 1 .4-8.3A75.408 75.408 0 0 0 35.167 24.1a5.606 5.606 0 0 1 8.3-.429 5.573 5.573 0 0 1 .487 7.357z" fill="#fffce5"></path><path d="M27.947 36.28a75.465 75.465 0 0 0 10.22-10.18 5.639 5.639 0 0 1 5.748-1.887 5.489 5.489 0 0 0-.451-.542 5.606 5.606 0 0 0-8.3.429 75.465 75.465 0 0 1-10.217 10.18 5.6 5.6 0 0 0 2.12 9.745 5.607 5.607 0 0 1 .88-7.745z" fill="#fffacf"></path><path d="M35.181 24.09a60.334 60.334 0 0 1-6.623 6.961q6.627 1.156 7.965 8.016a55.824 55.824 0 0 0 6.962-7.467 13.522 13.522 0 0 0-7.947-7.9 4.316 4.316 0 0 0-.357.39z" fill="#ffaa54"></path><path d="M38.167 26.1a5.728 5.728 0 0 1 .611-.624 15.587 15.587 0 0 0-3.24-1.782 4.467 4.467 0 0 0-.357.393 60.334 60.334 0 0 1-6.623 6.961 10.5 10.5 0 0 1 3.709 1.365 74.264 74.264 0 0 0 5.9-6.313z" fill="#ff8a14"></path><path d="M35.181 24.09a60.334 60.334 0 0 1-6.623 6.961q6.627 1.156 7.965 8.016a55.824 55.824 0 0 0 6.962-7.467 13.522 13.522 0 0 0-7.947-7.9 4.316 4.316 0 0 0-.357.39z" stroke="#fff48c" fill="none" stroke-linecap="round" stroke-linejoin="round" stroke-width="1.25px"></path><path d="M43.954 31.028a69.012 69.012 0 0 1-12.036 12.038 5.588 5.588 0 0 1-7.375-.491h0a5.609 5.609 0 0 1 .4-8.3A75.408 75.408 0 0 0 35.167 24.1a5.606 5.606 0 0 1 8.3-.429h0a5.573 5.573 0 0 1 .487 7.357z" stroke="#45413c" stroke-linecap="round" stroke-linejoin="round" stroke-width="1.25px" fill="none"></path><ellipse cx="27.27" cy="39.584" rx="5.287" ry="5.598" transform="rotate(-45 27.27 39.584)" fill="#ffe9bd" stroke-linecap="round" stroke-linejoin="round" stroke-width="1.25px" stroke="#45413c"></ellipse><path d="M31.463 17.844c3.761 3.76 2.752 8.849-1.009 12.61s-8.85 4.77-12.61 1.009a9.63 9.63 0 0 1 13.619-13.619z" fill="#bf8256"></path><circle cx="26.57" cy="23.23" r="1.098" fill="#915e3a"></circle><circle cx="28.883" cy="20.469" r="1.098" fill="#915e3a"></circle><circle cx="28.778" cy="26.678" r="1.098" fill="#915e3a"></circle><path d="M17.747 31.364a9.589 9.589 0 0 1-1.715-2.434v-.01a9.608 9.608 0 0 1-.874-2.757l-.018-.124a9.584 9.584 0 0 1 1.6-6.838 10.905 10.905 0 0 1 1.114-1.357 9.624 9.624 0 0 1 11.072-1.814l.017.062a45.251 45.251 0 0 1-8.961 9.961 1.634 1.634 0 0 0-.151 2.4l.013.013c3.76 3.761 8.849 2.752 12.61-1.009.186-.186.359-.377.532-.569a12.459 12.459 0 0 1-2.532 3.569c-3.761 3.761-8.85 4.77-12.61 1.009" fill="#915e3a"></path><path d="M31.463 17.844c3.761 3.76 2.752 8.849-1.009 12.61s-8.85 4.77-12.61 1.009a9.63 9.63 0 0 1 13.619-13.619z" stroke="#45413c" stroke-linecap="round" stroke-linejoin="round" stroke-width="1.25px" fill="none"></path><path d="M6.468 10.625a43.694 43.694 0 0 0 3 14.93c.777 1.868 3.116 2.413 5 1.136a45.156 45.156 0 0 0 12.2-12.2c1.285-1.889.756-4.241-1.12-5.021a43.707 43.707 0 0 0-14.928-3 4.141 4.141 0 0 0-4.152 4.155z" fill="#8ca4b8"></path><path d="M15.47 21.691c-1.883 1.277-4.222.732-5-1.136A41.792 41.792 0 0 1 7.6 7.778a3.95 3.95 0 0 0-1.132 2.847 43.694 43.694 0 0 0 3 14.93c.777 1.868 3.116 2.413 5 1.136a45.156 45.156 0 0 0 12.2-12.2 3.529 3.529 0 0 0 .212-3.891 45.107 45.107 0 0 1-11.41 11.091z" fill="#627b8c"></path><path d="M6.468 10.625a43.694 43.694 0 0 0 3 14.93c.777 1.868 3.116 2.413 5 1.136a45.156 45.156 0 0 0 12.2-12.2c1.285-1.889.756-4.241-1.12-5.021a43.707 43.707 0 0 0-14.928-3 4.141 4.141 0 0 0-4.152 4.155z" stroke="#45413c" stroke-linecap="round" stroke-linejoin="round" stroke-width="1.25px" fill="none"></path><circle cx="12.57" cy="10.23" r="1.098" fill="#adc4d9"></circle><circle cx="13.883" cy="16.469" r="1.098" fill="#adc4d9"></circle></svg>