<svg xmlns="http://www.w3.org/2000/svg" viewBox="0 0 50 50"><defs/><path d="m18.436 16.731-4.2-4.067a2.7 2.7 0 0 1-.571-3.225 4 4 0 1 0-7.393-2.8A1.967 1.967 0 0 1 4.727 8.11a4.129 4.129 0 0 0-3.058 4.365 4 4 0 0 0 4.416 3.536 3.929 3.929 0 0 0 1.727-.619 2.714 2.714 0 0 1 3.408.229l4.28 4.144z" stroke-linecap="round" stroke-linejoin="round" stroke-width="1.25px" stroke="#45413c" fill="#fff"/><path d="M42.272 19.988c3.229 2.979.876 10.374-4.982 16.231S24.165 44.308 21.058 41.2C4.845 24.987 3.349 23.492 13.956 12.885c9.199-9.199 10.071-9.727 28.316 7.103z" fill="#ff8a14"/><path d="M16.956 14.885c5.724-5.724 8.226-8.088 13.694-5-7.724-5.773-10.02-3.67-16.694 3-10.607 10.607-9.111 12.1 7.1 28.316a4.664 4.664 0 0 0 2.207 1.206C7.809 26.945 6.527 25.313 16.956 14.885z" fill="#ffaa54"/><path d="M42.272 19.988c3.229 2.979.876 10.374-4.982 16.231S24.165 44.308 21.058 41.2C4.845 24.987 3.349 23.492 13.956 12.885c9.199-9.199 10.071-9.727 28.316 7.103z" stroke="#45413c" stroke-linecap="round" stroke-linejoin="round" stroke-width="1.25px" fill="none"/><ellipse cx="31.586" cy="30.515" rx="13" ry="5.933" transform="rotate(-45 31.587 30.515)" fill="#e04122"/><ellipse cx="31.586" cy="30.515" rx="9.153" ry="4.178" transform="rotate(-45 31.587 30.515)" fill="#ff6242"/><ellipse cx="31.586" cy="30.515" rx="13" ry="5.933" transform="rotate(-45 31.587 30.515)" stroke="#fff" fill="none" stroke-linecap="round" stroke-linejoin="round" stroke-width="1.25px"/><path d="M43.432 31.874a4.868 4.868 0 0 0-1.6.29 6.068 6.068 0 0 1-5.856-.772l-2.2-1.722a2.31 2.31 0 0 0-3.414.593c-.018.032-.037.064-.055.1a2.34 2.34 0 0 0 .241 2.573l1.29 1.6a5.677 5.677 0 0 1 .976 5.541 4.921 4.921 0 0 0 9.073 3.8 3.873 3.873 0 0 1 2.75-2.232c2.627-.541 3.813-3.326 3.79-4.915a4.922 4.922 0 0 0-4.995-4.856z" fill="#fff"/><path d="M45.821 32.478a4.86 4.86 0 0 1 .6 2.249c.023 1.589-1.163 4.374-3.79 4.915a3.873 3.873 0 0 0-2.75 2.232 4.928 4.928 0 0 1-5.642 2.716 4.726 4.726 0 0 1-1.15-.45 4.911 4.911 0 0 0 8.792-.266 3.873 3.873 0 0 1 2.75-2.232c2.627-.541 3.813-3.326 3.79-4.915a4.9 4.9 0 0 0-2.6-4.249z" fill="#e0e0e0"/><path d="M43.432 31.874a4.868 4.868 0 0 0-1.6.29 6.068 6.068 0 0 1-5.856-.772l-2.2-1.722a2.31 2.31 0 0 0-3.414.593c-.018.032-.037.064-.055.1a2.34 2.34 0 0 0 .241 2.573l1.29 1.6a5.677 5.677 0 0 1 .976 5.541 4.921 4.921 0 0 0 9.073 3.8 3.873 3.873 0 0 1 2.75-2.232c2.627-.541 3.813-3.326 3.79-4.915a4.922 4.922 0 0 0-4.995-4.856z" stroke="#45413c" stroke-linecap="round" stroke-linejoin="round" stroke-width="1.25px" fill="none"/><path d="M18.418 19.862a15.519 15.519 0 0 0-2.807 3.238m10.975-5.371a15.853 15.853 0 0 0 2.926-3.43M17.394 32.578a15.91 15.91 0 0 0 2.926-3.43" stroke="#eb6d00" stroke-linecap="round" stroke-linejoin="round" stroke-width="1.25px" fill="none"/></svg>