<svg xmlns="http://www.w3.org/2000/svg" viewBox="0 0 50 50"><defs/><path d="M33.462 7.624C22.113 3.185 6.151 9.2 3.347 16.372 2 19.812.613 22.429 1.98 26.051c2.718 7.2 7.651 9.812 19 14.251s19.482 5.454 23.751-.95c1.9-2.85 2.194-5.573 2.935-7.466 2.804-7.168-2.854-19.822-14.204-24.262z" fill="#ffbe3d"/><path d="M33.462 7.624C22.113 3.185 6.151 9.2 3.347 16.372 2 19.812.613 22.429 1.98 26.051c2.718 7.2 7.651 9.812 19 14.251s19.482 5.454 23.751-.95c1.9-2.85 2.194-5.573 2.935-7.466 2.804-7.168-2.854-19.822-14.204-24.262z" stroke="#45413c" stroke-linecap="round" stroke-linejoin="round" stroke-width="1.25px" fill="none"/><circle cx="33.104" cy="38.338" r="3.651" fill="#ff6242" stroke="#45413c" stroke-linecap="round" stroke-linejoin="round" stroke-width="1.25px"/><circle cx="16.508" cy="37.202" r="3.651" fill="#e04122" stroke="#45413c" stroke-linecap="round" stroke-linejoin="round" stroke-width="1.25px"/><path d="M44.764 28.771a5.288 5.288 0 0 0-9.078 3.559 3.142 3.142 0 0 0-1.462.8 3.177 3.177 0 0 0-.058 4.492 3.138 3.138 0 0 0 1.39.82 3.158 3.158 0 0 0 4.544 3.54 3.135 3.135 0 0 0 4.57-1.88 3.173 3.173 0 1 0 1.374-6.194 5.27 5.27 0 0 0-1.28-5.137zm-28.019-.918a5.288 5.288 0 0 0-9.54-2.014 3.156 3.156 0 0 0-3.465 5.034 3.158 3.158 0 0 0 1.852 5.454 3.135 3.135 0 0 0 4.852.94A3.173 3.173 0 1 0 15 32.846a5.269 5.269 0 0 0 1.745-4.993z" fill="#46b000" stroke="#45413c" stroke-linecap="round" stroke-linejoin="round" stroke-width="1.25px"/><path d="M41.273 30.264a5.288 5.288 0 0 0-8.986-3.787 3.145 3.145 0 0 0-1.6-.449 3.177 3.177 0 0 0-3.177 3.177 3.142 3.142 0 0 0 .424 1.557 3.158 3.158 0 0 0 .784 5.706 3.133 3.133 0 0 0 4.582 1.843 3.173 3.173 0 1 0 5.307-3.477 5.272 5.272 0 0 0 2.666-4.57z" fill="#bf8256" stroke="#45413c" stroke-linecap="round" stroke-linejoin="round" stroke-width="1.25px"/><path d="M20.918 25.767a5.288 5.288 0 0 0-9.541-2.014 3.134 3.134 0 0 0-1.659-.136A3.177 3.177 0 0 0 7.2 27.338a3.135 3.135 0 0 0 .712 1.448 3.158 3.158 0 0 0 1.852 5.455 3.134 3.134 0 0 0 4.851.94 3.173 3.173 0 1 0 4.551-4.421 5.272 5.272 0 0 0 1.752-4.993z" fill="#915e3a" stroke="#45413c" stroke-linecap="round" stroke-linejoin="round" stroke-width="1.25px"/><path d="M31.349 33.068a5.288 5.288 0 0 0-9.541-2.013 3.144 3.144 0 0 0-1.659-.137 3.178 3.178 0 0 0-2.517 3.722 3.144 3.144 0 0 0 .712 1.448 3.158 3.158 0 0 0 1.856 5.455 3.134 3.134 0 0 0 4.851.939 3.173 3.173 0 1 0 4.549-4.421 5.271 5.271 0 0 0 1.749-4.993z" fill="#6dd627" stroke="#45413c" stroke-linecap="round" stroke-linejoin="round" stroke-width="1.25px"/><circle cx="16.508" cy="29.9" r="3.651" fill="#fff" stroke="#45413c" stroke-linecap="round" stroke-linejoin="round" stroke-width="1.25px"/><circle cx="31.111" cy="30.943" r="3.651" fill="#fff" stroke="#45413c" stroke-linecap="round" stroke-linejoin="round" stroke-width="1.25px"/><circle cx="40.499" cy="35.116" r="3.651" fill="#ff6242" stroke="#45413c" stroke-linecap="round" stroke-linejoin="round" stroke-width="1.25px"/><circle cx="6.077" cy="25.728" r="3.651" fill="#bf8df2" stroke="#45413c" stroke-linecap="round" stroke-linejoin="round" stroke-width="1.25px"/><circle cx="23.809" cy="37.202" r="3.651" fill="#bf8df2" stroke="#45413c" stroke-linecap="round" stroke-linejoin="round" stroke-width="1.25px"/><path d="M19.875 19.508a5.288 5.288 0 0 0-9.541-2.014 3.156 3.156 0 0 0-3.465 5.034 3.158 3.158 0 0 0 1.852 5.454 3.135 3.135 0 0 0 4.852.94 3.173 3.173 0 1 0 4.551-4.422 5.272 5.272 0 0 0 1.751-4.992z" fill="#9ceb60" stroke="#45413c" stroke-linecap="round" stroke-linejoin="round" stroke-width="1.25px"/><path d="M31.885 27.134a5.289 5.289 0 0 0-8.985-3.787 3.144 3.144 0 0 0-1.6-.448 3.176 3.176 0 0 0-3.176 3.176 3.141 3.141 0 0 0 .423 1.557 3.159 3.159 0 0 0 .784 5.707 3.135 3.135 0 0 0 4.585 1.843 3.173 3.173 0 1 0 5.307-3.477 5.273 5.273 0 0 0 2.662-4.571z" fill="#dea47a" stroke="#45413c" stroke-linecap="round" stroke-linejoin="round" stroke-width="1.25px"/><path d="M47.667 31.886c-2.8 7.168-11.536.5-22.886-3.935S.543 23.541 3.347 16.372 22.113 3.185 33.462 7.624 50.47 24.718 47.667 31.886z" fill="#ffda8f"/><path d="M33.462 7.624C22.113 3.185 6.151 9.2 3.347 16.372A4.37 4.37 0 0 0 3.056 19c4.149-6.527 18.793-11.522 29.406-7.371 9.771 3.817 15.308 13.721 14.874 20.978a7.432 7.432 0 0 0 .331-.721c2.803-7.168-2.855-19.822-14.205-24.262z" fill="#ffe9bd"/><path d="M47.667 31.886c-2.8 7.168-11.536.5-22.886-3.935S.543 23.541 3.347 16.372 22.113 3.185 33.462 7.624 50.47 24.718 47.667 31.886z" stroke="#45413c" stroke-linecap="round" stroke-linejoin="round" stroke-width="1.25px" fill="none"/><ellipse cx="35.275" cy="18.107" rx="2.5" ry="2" fill="#ffbe3d"/><ellipse cx="13.275" cy="19.107" rx="2.5" ry="2" fill="#ffbe3d"/><ellipse cx="21.275" cy="10.107" rx="2.5" ry="2" fill="#ffbe3d"/><ellipse cx="25.275" cy="18.107" rx="1.25" ry="1" fill="#ffbe3d"/><ellipse cx="30.275" cy="25.107" rx="1.25" ry="1" fill="#ffbe3d"/><ellipse cx="42.275" cy="26.107" rx="1.25" ry="1" fill="#ffbe3d"/></svg>