<svg xmlns="http://www.w3.org/2000/svg" viewBox="0 0 50 50"><defs/><path d="M46.46 3.162h0a1.469 1.469 0 0 1-1.2 1.88L6.889 10.488A.994.994 0 0 1 5.8 9.647h0a1 1 0 0 1 .79-1.125l38.222-6.383a1.469 1.469 0 0 1 1.648 1.023z" stroke-linecap="round" stroke-linejoin="round" stroke-width="1.25px" stroke="#45413c" fill="#bf8256"/><path d="M46.524 25.975c0-5.422-9.889-9.817-22.087-9.817S2.349 20.553 2.349 25.975c0 1.818-.981 22.015 22.578 21.906 20.644-.096 21.597-20.343 21.597-21.906z" fill="#ff6242"/><path d="M24.927 43.131C6.709 43.215 3.168 31.162 2.5 24.85a4.5 4.5 0 0 0-.149 1.125c0 1.818-.981 22.015 22.578 21.906 20.644-.1 21.6-20.343 21.6-21.906a4.6 4.6 0 0 0-.306-1.623c-.981 6.09-5.009 18.703-21.296 18.779z" fill="#e04122"/><path d="M46.524 25.975c0-5.422-9.889-9.817-22.087-9.817S2.349 20.553 2.349 25.975c0 1.818-.981 22.015 22.578 21.906 20.644-.096 21.597-20.343 21.597-21.906z" fill="none" stroke-linecap="round" stroke-linejoin="round" stroke-width="1.25px" stroke="#45413c"/><ellipse cx="24.437" cy="25.212" rx="22.087" ry="9.817" fill="#ffa694"/><ellipse cx="24.437" cy="25.212" rx="22.087" ry="9.817" fill="none" stroke-linecap="round" stroke-linejoin="round" stroke-width="1.25px" stroke="#45413c"/><ellipse cx="24.437" cy="25.212" rx="19.532" ry="7.731" stroke="#e04122" fill="#ff6242" stroke-linecap="round" stroke-linejoin="round" stroke-width="1.25px"/><ellipse cx="24.437" cy="25.212" rx="19.532" ry="7.731" stroke="#e04122" fill="#ff6242" stroke-linecap="round" stroke-linejoin="round" stroke-width="1.25px"/><ellipse cx="24.437" cy="25.212" rx="19.532" ry="7.731" fill="#ff6242" stroke-linecap="round" stroke-linejoin="round" stroke-width="1.25px" stroke="#45413c"/><ellipse cx="24.437" cy="26.637" rx="19.187" ry="6.306" fill="#ff8a14" stroke="#eb6d00" stroke-linecap="round" stroke-linejoin="round" stroke-width="1.25px"/><path d="M44.114 24.313a3.6 3.6 0 0 0-1.723-2.244 3.582 3.582 0 0 0-.675-6.9c-.313-2.28-1.242-3.971-2.765-4.606s-3.379-.107-5.219 1.275a3.571 3.571 0 0 0-5.422 1.529 3.58 3.58 0 0 0 .042 2.847 3.58 3.58 0 0 0-3.652 5.85 3.588 3.588 0 0 0 1.276 4.148A12.764 12.764 0 0 0 26.5 32.9a39.586 39.586 0 0 0 10.1-1.643c.122-.152.244-.3.364-.463a3.547 3.547 0 0 0 .9.027A19.2 19.2 0 0 0 40 29.869a3.571 3.571 0 0 0 .8-1.088 3.632 3.632 0 0 0 1.355-.334 4.389 4.389 0 0 0 1.811-3.235 4.271 4.271 0 0 1 .148-.899z" fill="#6dd627"/><path d="M44.114 24.313a3.6 3.6 0 0 0-1.723-2.244 3.582 3.582 0 0 0-.675-6.9c-.313-2.28-1.242-3.971-2.765-4.606s-3.379-.107-5.219 1.275a3.571 3.571 0 0 0-5.422 1.529 3.58 3.58 0 0 0 .042 2.847 3.58 3.58 0 0 0-3.652 5.85 3.588 3.588 0 0 0 1.276 4.148A12.764 12.764 0 0 0 26.5 32.9a39.586 39.586 0 0 0 10.1-1.643c.122-.152.244-.3.364-.463a3.547 3.547 0 0 0 .9.027A19.2 19.2 0 0 0 40 29.869a3.571 3.571 0 0 0 .8-1.088 3.632 3.632 0 0 0 1.355-.334 4.389 4.389 0 0 0 1.811-3.235 4.271 4.271 0 0 1 .148-.899z" fill="#6dd627"/><path d="M42.508 15.387a3.556 3.556 0 0 0-.792-.22c-.313-2.28-1.242-3.971-2.765-4.606s-3.379-.107-5.219 1.275a3.571 3.571 0 0 0-5.422 1.529 3.547 3.547 0 0 0-.06 2.543 3.593 3.593 0 0 1 3.817-.68 3.632 3.632 0 0 1 .715.408c1.84-1.382 3.7-1.911 5.219-1.275s2.452 2.326 2.765 4.606a3.506 3.506 0 0 1 2.8 2.377 3.551 3.551 0 0 0 .882-1.249 3.6 3.6 0 0 0-1.94-4.708z" fill="#9ceb60"/><path d="M44.114 24.313a3.6 3.6 0 0 0-1.723-2.244 3.582 3.582 0 0 0-.675-6.9c-.313-2.28-1.242-3.971-2.765-4.606s-3.379-.107-5.219 1.275a3.571 3.571 0 0 0-5.422 1.529 3.58 3.58 0 0 0 .042 2.847 3.58 3.58 0 0 0-3.652 5.85 3.588 3.588 0 0 0 1.276 4.148A12.764 12.764 0 0 0 26.5 32.9a39.586 39.586 0 0 0 10.1-1.643c.122-.152.244-.3.364-.463a3.547 3.547 0 0 0 .9.027A19.2 19.2 0 0 0 40 29.869a3.571 3.571 0 0 0 .8-1.088 3.632 3.632 0 0 0 1.355-.334 4.389 4.389 0 0 0 1.811-3.235 4.271 4.271 0 0 1 .148-.899z" fill="none" stroke-linecap="round" stroke-linejoin="round" stroke-width="1.25px" stroke="#45413c"/><path d="M35.964 16.76a46.657 46.657 0 0 0-6.586 13.847" stroke="#46b000" fill="none" stroke-linecap="round" stroke-linejoin="round" stroke-width="1.25px"/><path d="M15.649 21.281c-.221 0-.438.015-.658.02a20.444 20.444 0 0 0-7.936 3.254 1.428 1.428 0 0 0 1.451.457 28.1 28.1 0 0 1 7.143-.881c5.509 0 10.666 1.51 12.833 3.758a1.425 1.425 0 0 0 2.052-1.978c-2.754-2.857-8.457-4.63-14.885-4.63z" fill="#ffe500" stroke-linecap="round" stroke-linejoin="round" stroke-width="1.25px" stroke="#45413c"/><path d="M30.3 25.066c-3-1.619-6.252-1.416-7.259.452s.609 4.7 3.611 6.313a9.363 9.363 0 0 0 2.348.891 41.509 41.509 0 0 0 4.3-.627 2.482 2.482 0 0 0 .611-.716c1.005-1.868-.611-4.695-3.611-6.313z" fill="#bf8256"/><path d="M27.552 30.159c-2.538-1.368-4.078-3.6-3.888-5.383a2.477 2.477 0 0 0-.625.742c-1.008 1.868.609 4.7 3.611 6.313a9.363 9.363 0 0 0 2.35.891 41.509 41.509 0 0 0 4.3-.627 2.309 2.309 0 0 0 .888-1.646c-1.388 1.14-4.099 1.078-6.636-.29z" fill="#915e3a"/><path d="M30.3 25.066c-3-1.619-6.252-1.416-7.259.452s.609 4.7 3.611 6.313a9.363 9.363 0 0 0 2.348.891 41.509 41.509 0 0 0 4.3-.627 2.482 2.482 0 0 0 .611-.716c1.005-1.868-.611-4.695-3.611-6.313z" fill="none" stroke-linecap="round" stroke-linejoin="round" stroke-width="1.25px" stroke="#45413c"/><path d="M28.464 25.993a4.826 4.826 0 0 1 1.051 2.825" stroke="#dea47a" fill="none" stroke-linecap="round" stroke-linejoin="round" stroke-width="1.25px"/><path d="M27.449 27.743a6.118 6.118 0 0 1 3.376-.774" stroke="#dea47a" fill="none" stroke-linecap="round" stroke-linejoin="round" stroke-width="1.25px"/><path d="M15.872 4.393a1.421 1.421 0 0 1-.361 1.055c-2.088 2.322-3.226 7.574-2.832 13.068a28.145 28.145 0 0 0 1.389 7.062 1.425 1.425 0 1 1-2.694.931 31.012 31.012 0 0 1-1.538-7.789c-.459-6.412.9-12.227 3.555-15.178a1.425 1.425 0 0 1 2.481.851z" fill="#fff48c" stroke-linecap="round" stroke-linejoin="round" stroke-width="1.25px" stroke="#45413c"/><path d="M18.722 5.343a1.421 1.421 0 0 1-.361 1.057c-2.088 2.322-3.226 7.574-2.832 13.068a28.145 28.145 0 0 0 1.389 7.062 1.425 1.425 0 1 1-2.694.931 31.012 31.012 0 0 1-1.538-7.789c-.459-6.412.9-12.227 3.555-15.178a1.425 1.425 0 0 1 2.481.851z" fill="#fff48c" stroke-linecap="round" stroke-linejoin="round" stroke-width="1.25px" stroke="#45413c"/><path d="M13.749 24.131a31.4 31.4 0 0 0-7.159.813 5.493 5.493 0 0 0-1.34 1.693 5 5 0 0 0 .886 1.263 1.448 1.448 0 0 0 .47-.038 28.1 28.1 0 0 1 7.143-.881c5.509 0 10.666 1.51 12.833 3.758a1.425 1.425 0 0 0 2.052-1.978c-2.754-2.861-8.457-4.63-14.885-4.63z" fill="#ffe500" stroke-linecap="round" stroke-linejoin="round" stroke-width="1.25px" stroke="#45413c"/><path d="M12.8 26.981a31.613 31.613 0 0 0-6.815.735 10.265 10.265 0 0 0 3.235 2.327 30.461 30.461 0 0 1 3.579-.212c4.953 0 9.615 1.223 12.082 3.1a49.14 49.14 0 0 0 3.162-.126 1.4 1.4 0 0 0-.359-1.2c-2.754-2.851-8.457-4.624-14.884-4.624z" fill="#ffe500" stroke-linecap="round" stroke-linejoin="round" stroke-width="1.25px" stroke="#45413c"/><path d="M47.607 8.1h0a1.469 1.469 0 0 1-1.264 1.837L7.806 14.044a1 1 0 0 1-1.057-.879h0a1 1 0 0 1 .828-1.1L46 7.017A1.469 1.469 0 0 1 47.607 8.1z" stroke-linecap="round" stroke-linejoin="round" stroke-width="1.25px" stroke="#45413c" fill="#bf8256"/><path d="M43.628 26.624A5.1 5.1 0 0 0 42.2 23.7c-2.226-2.226-6.136-1.925-8.733.672-2.311 2.311-2.8 5.659-1.31 7.937 5.893-1.002 10.274-3.122 11.471-5.685z" fill="#fff" stroke-linecap="round" stroke-linejoin="round" stroke-width="1.25px" stroke="#45413c"/><path d="M35.056 25.963a3.776 3.776 0 0 0-.407 5.293 3.038 3.038 0 0 0 .521.411 21.048 21.048 0 0 0 5.766-2.33 3.444 3.444 0 0 0-.587-3.781 3.775 3.775 0 0 0-5.293.407z" fill="#ff8a14" stroke="#eb6d00" stroke-linecap="round" stroke-linejoin="round" stroke-width="1.25px"/><path d="M18.789 26.51c-3.406.164-6.085 2.015-5.983 4.135a2.5 2.5 0 0 0 .188.823 41.472 41.472 0 0 0 10.365 1.453 3.393 3.393 0 0 0 1.783-2.869c-.102-2.12-2.942-3.706-6.353-3.542z" fill="#bf8256"/><path d="M18.789 26.51c-3.406.164-6.085 2.015-5.983 4.135a2.5 2.5 0 0 0 .188.823 41.472 41.472 0 0 0 10.365 1.453 3.393 3.393 0 0 0 1.783-2.869c-.102-2.12-2.942-3.706-6.353-3.542z" fill="none" stroke-linecap="round" stroke-linejoin="round" stroke-width="1.25px" stroke="#45413c"/><path d="M17.7 28.25a4.83 4.83 0 0 1 2.359 1.877" stroke="#dea47a" fill="none" stroke-linecap="round" stroke-linejoin="round" stroke-width="1.25px"/><path d="M17.732 30.273a6.112 6.112 0 0 1 2.492-2.405" stroke="#dea47a" fill="none" stroke-linecap="round" stroke-linejoin="round" stroke-width="1.25px"/><path d="M43.969 25.212c0 4.269-8.745 7.731-19.532 7.731S4.9 29.481 4.9 25.212" fill="none" stroke-linecap="round" stroke-linejoin="round" stroke-width="1.25px" stroke="#45413c"/></svg>