<svg xmlns="http://www.w3.org/2000/svg" viewBox="0 0 50 50"><defs/><path d="M48.253 23.579c0-5.707-10.409-10.333-23.25-10.333s-23.25 4.626-23.25 10.333c0 1.913-1.033 17.681 23.767 17.566 21.73-.1 22.733-15.921 22.733-17.566z" fill="#87898c"/><path d="M25.52 38.145c-20.243.094-23.273-10.392-23.7-15.29a4.728 4.728 0 0 0-.063.724C1.753 25.492.72 41.26 25.52 41.145c21.73-.1 22.733-15.921 22.733-17.566a4.77 4.77 0 0 0-.164-1.211c-.705 4.568-4.355 15.693-22.569 15.777z" fill="#656769"/><path d="M48.253 23.579c0-5.707-10.409-10.333-23.25-10.333s-23.25 4.626-23.25 10.333c0 1.913-1.033 17.681 23.767 17.566 21.73-.1 22.733-15.921 22.733-17.566z" stroke="#45413c" stroke-linecap="round" stroke-linejoin="round" stroke-width="1.25px" fill="none"/><ellipse cx="25.003" cy="22.775" rx="23.25" ry="10.333" fill="#bdbec0" stroke="#45413c" stroke-linecap="round" stroke-linejoin="round" stroke-width="1.25px"/><path d="M24.745 15.427c-11.557 0-20.925 4.9-20.925 10.945a5.645 5.645 0 0 0 .065.724c3.681 3.548 11.75 6.012 21.115 6.012 8.89 0 16.612-2.218 20.524-5.477a5.779 5.779 0 0 0 .143-1.259c.003-6.045-9.367-10.945-20.922-10.945z" fill="#ffc44d"/><path d="M24.745 15.427c-11.557 0-20.925 4.9-20.925 10.945a5.645 5.645 0 0 0 .065.724 14.063 14.063 0 0 0 2.837 2.051 3.853 3.853 0 0 1-.038-.444c0-5.559 8.086-10.066 18.061-10.066s18.06 4.507 18.06 10.066a5.377 5.377 0 0 1-.057.741 15.836 15.836 0 0 0 2.779-1.813 5.779 5.779 0 0 0 .143-1.259c0-6.045-9.37-10.945-20.925-10.945z" fill="#fff48c"/><path d="M24.745 15.427c-11.557 0-20.925 4.9-20.925 10.945a5.645 5.645 0 0 0 .065.724c3.681 3.548 11.75 6.012 21.115 6.012 8.89 0 16.612-2.218 20.524-5.477a5.779 5.779 0 0 0 .143-1.259c.003-6.045-9.367-10.945-20.922-10.945z" stroke="#45413c" stroke-linecap="round" stroke-linejoin="round" stroke-width="1.25px" fill="none"/><path d="M15.253 26.343c0 1.6-7 1.59-7 0 0-1.353 1.567-2.45 3.5-2.45s3.5 1.097 3.5 2.45z" fill="#48cf3e" stroke="#45413c" stroke-linecap="round" stroke-linejoin="round" stroke-width="1.25px"/><path d="M10.093 22.259a2.042 2.042 0 0 0 .679-.059 2.543 2.543 0 0 1 2.414.55l.853.8a.968.968 0 0 0 1.447-.115l.027-.038a.978.978 0 0 0 0-1.083l-.476-.719a2.379 2.379 0 0 1-.192-2.35 2.063 2.063 0 0 0-3.639-1.937 1.625 1.625 0 0 1-1.234.824A2.168 2.168 0 0 0 8.2 20.04a2.063 2.063 0 0 0 1.893 2.219z" fill="#f0f0f0"/><path d="M9.334 21.408a2.167 2.167 0 0 1 1.772-1.9 1.622 1.622 0 0 0 1.235-.824 2.064 2.064 0 0 1 2.46-.914 1.805 1.805 0 0 1 .187.079 2.06 2.06 0 0 0-3.783-.533 1.625 1.625 0 0 1-1.234.824 2.168 2.168 0 0 0-1.771 1.9 2.059 2.059 0 0 0 1.2 2.032 2.059 2.059 0 0 1-.066-.664z" fill="#fff"/><path d="M10.093 22.259a2.042 2.042 0 0 0 .679-.059 2.543 2.543 0 0 1 2.414.55l.853.8a.968.968 0 0 0 1.447-.115l.027-.038a.978.978 0 0 0 0-1.083l-.476-.719a2.379 2.379 0 0 1-.192-2.35 2.063 2.063 0 0 0-3.639-1.937 1.625 1.625 0 0 1-1.234.824A2.168 2.168 0 0 0 8.2 20.04a2.063 2.063 0 0 0 1.893 2.219z" stroke="#45413c" stroke-linecap="round" stroke-linejoin="round" stroke-width="1.25px" fill="none"/><path d="M24.579 25.856a6.962 6.962 0 0 0-4.212-2.463 12.339 12.339 0 0 1-3.567-1.285c-.733-.372-1.184.2-2.059.929-.677.561-1.72 1.1-1.376 2.159a9.5 9.5 0 0 1 .541 3.406 6.783 6.783 0 0 0 .771 3.427 47.942 47.942 0 0 0 9.786 1.071 5.432 5.432 0 0 0 .116-7.244z" fill="#ff8a14"/><path d="M24.579 25.856a6.962 6.962 0 0 0-4.212-2.463 12.339 12.339 0 0 1-3.567-1.285c-.733-.372-1.184.2-2.059.929-.129.107-.273.215-.417.324a11.294 11.294 0 0 0 3.04 1.032 6.962 6.962 0 0 1 4.212 2.463 5.287 5.287 0 0 1 .6 6.164c.752.04 1.51.072 2.283.08a5.432 5.432 0 0 0 .12-7.244z" fill="#ffaa54"/><path d="M24.579 25.856a6.962 6.962 0 0 0-4.212-2.463 12.339 12.339 0 0 1-3.567-1.285c-.733-.372-1.184.2-2.059.929-.677.561-1.72 1.1-1.376 2.159a9.5 9.5 0 0 1 .541 3.406 6.783 6.783 0 0 0 .771 3.427 47.942 47.942 0 0 0 9.786 1.071 5.432 5.432 0 0 0 .116-7.244z" stroke="#45413c" stroke-linecap="round" stroke-linejoin="round" stroke-width="1.25px" fill="none"/><path d="M26.253 19.343c0 1.6-7 1.59-7 0 0-1.353 1.567-2.45 3.5-2.45s3.5 1.097 3.5 2.45zm14 2c0 1.6-7 1.59-7 0 0-1.353 1.567-2.45 3.5-2.45s3.5 1.097 3.5 2.45z" fill="#48cf3e" stroke="#45413c" stroke-linecap="round" stroke-linejoin="round" stroke-width="1.25px"/><circle cx="30.253" cy="19.637" r="1.5" fill="#ff6242" stroke="#45413c" stroke-linecap="round" stroke-linejoin="round" stroke-width="1.25px"/><circle cx="29.253" cy="26.637" r="1.5" fill="#ff6242" stroke="#45413c" stroke-linecap="round" stroke-linejoin="round" stroke-width="1.25px"/><circle cx="38.253" cy="27.637" r="1.5" fill="#ff6242" stroke="#45413c" stroke-linecap="round" stroke-linejoin="round" stroke-width="1.25px"/><path d="M31.593 12.866c2.42-1.473 6.477-1.222 9.4.052 2.4 1.046 2.584 1.808 2.478 2.353a2.7 2.7 0 0 1-.451.976 15.513 15.513 0 0 1 2.51 1.677 5.639 5.639 0 0 0 .884-2.075c.694-3.539-3.007-5.151-4.224-5.681-4.436-1.931-10.841-2.011-13.967 1.651a1.489 1.489 0 0 0-.329.706q1.906.103 3.699.341zm-14.288 19.66c-2.38 2.028-6.952 1.74-9.912.523-2.421-.995-2.623-1.753-2.527-2.3a3.552 3.552 0 0 1 1.267-1.941 12.982 12.982 0 0 1-2.4-1.865 6.156 6.156 0 0 0-1.818 3.29c-.619 3.552 3.114 5.087 4.342 5.592a16.521 16.521 0 0 0 6.078 1.153c3.369 0 6.753-1.1 8.472-4.041a48.44 48.44 0 0 1-3.502-.411z" fill="#bdbec0" stroke="#45413c" stroke-linecap="round" stroke-linejoin="round" stroke-width="1.25px"/></svg>